<svg width="200" height="52" viewBox="0 0 200 52" xmlns="http://www.w3.org/2000/svg">
    <path opacity=".5" fill="#b9daf7" d="M18 26.4l-6.2-6.2L18 14l6.2 6.2-6.2 6.2z"/>
    <path fill="#b9daf7" d="M25.9 34.2L19.6 28l6.2-6.2L32 28l-6.1 6.2zm-15.7-.1L4 27.9l6.2-6.2 6.2 6.2-6.2 6.2zm7.9 7.9l-6.2-6.2 6.2-6.2 6.2 6.2-6.2 6.2zM53.4 7.8v1.1h-6.2v16h-2.9v-16h-6.2V7.8h15.3zm4.6 6.4c.8-.9 1.6-1.6 2.5-2 .9-.4 1.7-.7 2.6-.7.5 0 .9.1 1.3.3s.8.5 1.1.9c.3.4.5.8.7 1.3.2.5.3 1 .3 1.6V25h-2.6v-9c0-.9-.2-1.5-.6-2-.4-.5-.9-.7-1.5-.7-.3 0-.6 0-.9.1-.3.1-.6.2-.9.4-.3.2-.6.4-1 .6-.3.2-.6.5-.9.8V25h-2.6V5.8l1.8-.8h.7v9.2zm17.3 11c-.9 0-1.7-.2-2.5-.5s-1.5-.8-2.1-1.4c-.6-.6-1-1.3-1.4-2-.3-.8-.5-1.6-.5-2.5 0-1.1.2-2 .5-2.9.3-.9.8-1.7 1.3-2.3.6-.7 1.2-1.2 2-1.5.8-.4 1.7-.6 2.7-.6.9 0 1.7.2 2.4.5s1.3.7 1.9 1.2c.5.5.9 1.1 1.2 1.8.3.7.4 1.4.4 2.1h-9.8c0 .9.1 1.7.3 2.5.2.8.5 1.4 1 2 .4.5.9 1 1.5 1.3a4.14 4.14 0 0 0 3.5.2c.5-.2 1-.4 1.4-.7.4-.3.8-.6 1.1-1 .3-.4.5-.8.6-1.2l.8.3c-.2.7-.5 1.3-.9 1.9-.4.6-.9 1.1-1.5 1.6-.6.4-1.2.8-1.8 1-.7.1-1.4.2-2.1.2zM78 16c0-.5-.1-1-.3-1.4s-.4-.8-.7-1.1c-.3-.3-.7-.6-1.1-.7-.4-.2-.9-.3-1.3-.3s-.8.1-1.1.3c-.4.2-.7.4-1 .7-.3.3-.5.7-.7 1.1-.2.4-.3.9-.3 1.4H78zm16.7.4c0 1.2.2 2.3.5 3.2.4 1 .9 1.8 1.5 2.4.6.7 1.4 1.2 2.2 1.5.9.3 1.8.5 2.8.5.6 0 1.2-.1 1.7-.4.6-.2 1.1-.5 1.6-.9a8 8 0 0 0 1.3-1.3c.4-.5.7-.9.9-1.4l1.2.8c-.4.6-.8 1.1-1.2 1.7-.5.5-1 1-1.7 1.4-.6.4-1.3.7-2.1 1-.8.2-1.7.4-2.7.4-.9 0-1.8-.1-2.7-.3-.8-.2-1.6-.5-2.3-.9-.7-.4-1.3-.9-1.9-1.4-.6-.5-1-1.2-1.4-1.8-.4-.7-.7-1.4-.9-2.1a9.08 9.08 0 0 1 0-4.6c.2-.8.5-1.5.9-2.1A8.62 8.62 0 0 1 98 8c.8-.2 1.7-.3 2.7-.3.9 0 1.7.1 2.5.4.8.2 1.5.6 2.1 1 .6.4 1.2.9 1.7 1.4.5.5.9 1.1 1.3 1.7l-1.2.8c-.7-1.4-1.5-2.4-2.4-3-.9-.6-1.9-1-3-1-1 0-1.9.2-2.8.5-.9.4-1.6.9-2.2 1.6-.6.7-1.1 1.5-1.5 2.4-.3.7-.5 1.7-.5 2.9zm16.7-4.6h2.6v2.5l.8-1.1.9-.9c.3-.3.6-.5 1-.6.3-.1.7-.2 1-.2.3 0 .6 0 .8.1.2.1.5.2.6.3.2.1.3.3.4.5.1.2.2.4.2.6 0 .4-.1.7-.4 1-.3.2-.6.3-1.1.3-.3 0-.5 0-.7-.1-.2-.1-.3-.1-.5-.2-.1-.1-.3-.1-.4-.2-.1-.1-.3-.1-.6-.1-.2 0-.3 0-.5.2-.2.1-.4.2-.5.4-.2.2-.4.4-.5.6-.2.2-.4.5-.5.8V25h-2.6V11.8zm16.2 13.4a6.92 6.92 0 0 1-5-1.9c-.6-.6-1.1-1.3-1.4-2.1-.4-.8-.5-1.7-.5-2.6a6.92 6.92 0 0 1 1.9-4.9c.6-.6 1.4-1.1 2.2-1.5.9-.4 1.8-.6 2.8-.6 1 0 1.9.2 2.8.5.8.3 1.6.8 2.2 1.4a8 8 0 0 1 1.5 2.1c.4.8.5 1.6.5 2.5 0 1-.2 1.9-.5 2.8-.4.9-.8 1.6-1.5 2.3s-1.4 1.2-2.2 1.6c-.8.2-1.8.4-2.8.4zm.5-.9c.5 0 1-.1 1.4-.4.4-.3.8-.6 1.1-1.1.3-.4.6-1 .7-1.6.2-.6.3-1.2.3-1.9 0-1-.1-1.9-.2-2.7-.2-.8-.4-1.6-.8-2.2-.4-.6-.8-1.1-1.4-1.5-.6-.4-1.3-.5-2.2-.5-.4 0-.9.1-1.3.4-.4.3-.8.6-1.1 1-.3.4-.6 1-.8 1.5-.2.6-.3 1.2-.3 1.9 0 1 .1 1.9.3 2.7.2.8.5 1.6.9 2.2.4.6.9 1.1 1.4 1.5.7.5 1.3.7 2 .7zm13.2 0c.4 0 .7-.1 1-.2.3-.1.6-.3.8-.4.2-.2.4-.4.5-.6.1-.2.2-.5.2-.7 0-.4-.1-.8-.3-1s-.5-.6-.8-.8c-.3-.2-.7-.5-1.1-.7-.4-.2-.9-.4-1.3-.6-.4-.2-.9-.4-1.3-.7a4.44 4.44 0 0 1-1.9-1.9 4.01 4.01 0 0 1 0-3c.2-.5.5-.8.9-1.2.4-.3.9-.6 1.4-.8.6-.2 1.2-.3 1.8-.3.4 0 .8 0 1.2.1.4.1.8.2 1.1.4a4.97 4.97 0 0 1 2.2 2l-1 .9c-.5-.8-1.1-1.4-1.7-1.8-.6-.4-1.3-.6-2-.6-.4 0-.7 0-1 .1-.3.1-.6.2-.8.4-.2.2-.4.3-.5.6-.1.2-.2.4-.2.7 0 .4.1.7.3 1 .2.3.5.6.9.8.4.2.8.5 1.2.7s.9.4 1.4.6c.5.2 1 .4 1.4.7.5.2.9.5 1.2.8.4.3.6.7.9 1.1.2.4.3.9.3 1.4a3.8 3.8 0 0 1-1.2 2.9c-.4.4-.9.6-1.6.8-.6.2-1.4.3-2.2.3-.4 0-.8 0-1.2-.1-.4-.1-.8-.2-1.2-.4s-.8-.4-1.2-.7-.8-.7-1.2-1.3l1.1-1c.3.5.6.8.9 1.1.3.3.6.6.9.8.3.2.6.4.9.4.5.2.9.2 1.2.2zm11.9 0c.4 0 .7-.1 1-.2.3-.1.6-.3.8-.4.2-.2.4-.4.5-.6.1-.2.2-.5.2-.7 0-.4-.1-.8-.3-1-.2-.3-.5-.6-.8-.8s-.7-.5-1.1-.7c-.4-.2-.9-.4-1.3-.6-.4-.2-.9-.4-1.3-.7a4.44 4.44 0 0 1-1.9-1.9 4.01 4.01 0 0 1 0-3c.2-.5.5-.8.9-1.2.4-.3.9-.6 1.4-.8.6-.2 1.2-.3 1.8-.3.4 0 .8 0 1.2.1.4.1.8.2 1.1.4s.7.4 1.1.7c.4.3.7.7 1.1 1.3l-1 .9c-.5-.8-1.1-1.4-1.7-1.8-.6-.4-1.3-.6-2-.6-.4 0-.7 0-1 .1-.3.1-.6.2-.8.4-.2.2-.4.3-.5.6-.1.2-.2.4-.2.7 0 .4.1.7.3 1 .2.3.5.6.9.8.4.2.8.5 1.2.7l1.4.6c.5.2 1 .4 1.4.7.5.2.9.5 1.2.8.4.3.6.7.9 1.1.2.4.3.9.3 1.4a3.8 3.8 0 0 1-1.2 2.9c-.4.4-.9.6-1.6.8-.6.2-1.4.3-2.2.3-.4 0-.8 0-1.2-.1-.4-.1-.8-.2-1.2-.4-.4-.2-.8-.4-1.2-.7s-.8-.7-1.2-1.3l1.1-1c.3.5.6.8.9 1.1.3.3.6.6.9.8.3.2.6.4.9.4.5.2.9.2 1.2.2zm8.9-12.5l4.2 9.6 4.1-9.6 4.2 9.6 3.7-9.6h1.3l-5.4 13.3h-.9l-3.7-8.6-3.7 8.6h-.8l-5.8-13.3h2.8zm25.3 13.4a6.92 6.92 0 0 1-5-1.9c-.6-.6-1.1-1.3-1.4-2.1-.4-.8-.5-1.7-.5-2.6a6.92 6.92 0 0 1 1.9-4.9c.6-.6 1.4-1.1 2.2-1.5.9-.4 1.8-.6 2.8-.6 1 0 1.9.2 2.8.5.8.3 1.6.8 2.2 1.4a8 8 0 0 1 1.5 2.1c.4.8.5 1.6.5 2.5 0 1-.2 1.9-.5 2.8-.4.9-.8 1.6-1.5 2.3-.6.7-1.4 1.2-2.2 1.6-.9.2-1.8.4-2.8.4zm.5-.9c.5 0 1-.1 1.4-.4.4-.3.8-.6 1.1-1.1.3-.4.6-1 .7-1.6.2-.6.3-1.2.3-1.9 0-1-.1-1.9-.2-2.7-.2-.8-.4-1.6-.8-2.2-.4-.6-.9-1.1-1.4-1.5-.6-.4-1.3-.5-2.2-.5-.4 0-.9.1-1.3.4-.4.3-.8.6-1.1 1-.3.4-.6 1-.8 1.5-.2.6-.3 1.2-.3 1.9 0 1 .1 1.9.3 2.7.2.8.5 1.6.9 2.2.4.6.9 1.1 1.4 1.5.6.5 1.3.7 2 .7zM44.4 30h2.9v16h8.6v1.1H44.4V30zm23.5 17.1h-2.6v-1.8c-.3.2-.6.5-.9.7-.3.2-.6.5-1 .7-.3.2-.7.4-1.2.5-.4.1-.9.2-1.5.2-.5 0-1-.1-1.4-.2-.4-.2-.8-.4-1.1-.7-.3-.3-.5-.6-.7-1-.2-.4-.2-.8-.2-1.3 0-.6.1-1.1.3-1.5.2-.5.5-.9.9-1.2.4-.4.8-.7 1.4-1 .5-.3 1.1-.5 1.7-.8l1.8-.6c.6-.2 1.2-.3 1.8-.5v-.8c0-.6-.1-1.1-.2-1.5-.1-.4-.3-.7-.5-1-.2-.3-.5-.4-.8-.5-.3-.1-.7-.2-1.1-.2-.4 0-.8.1-1.1.2-.3.1-.5.3-.7.5-.2.2-.3.4-.3.6-.1.2-.1.5-.1.7 0 .2 0 .5-.1.7 0 .2-.1.4-.2.6-.1.2-.2.3-.4.4-.2.1-.4.1-.6.1-.2 0-.4 0-.6-.1-.2-.1-.3-.2-.4-.3-.1-.1-.2-.3-.3-.5-.1-.2-.1-.4-.1-.6 0-.4.1-.8.4-1.2a4 4 0 0 1 1.2-1c.5-.3 1.1-.5 1.7-.7.6-.2 1.3-.2 2-.2.9 0 1.6.1 2.2.2.6.2 1.1.4 1.4.7.4.3.6.7.8 1.1.2.4.2.9.2 1.4l.3 9.9zm-2.7-7.7c-.4.1-.8.3-1.2.4-.4.2-.8.3-1.2.5-.4.2-.8.4-1.1.6-.4.2-.7.5-.9.7-.3.3-.5.5-.6.8-.2.4-.2.7-.2 1 0 .3.1.6.2.9.1.3.3.5.5.8.2.2.4.4.7.5.3.1.5.2.8.2.3 0 .6 0 .8-.1.3-.1.5-.2.8-.3.2-.1.5-.3.7-.5.2-.2.5-.4.8-.6l-.1-4.9zm7.6-5.5l4.2 9.6 4.2-9.6 4.2 9.6 3.7-9.6h1.3L85 47.2h-1l-3.7-8.6-3.7 8.6h-.8L70 33.9h2.8zm32 13.5a6.04 6.04 0 0 1-5.7-4c-.3-.8-.5-1.6-.5-2.5 0-1 .2-1.9.5-2.8s.8-1.6 1.5-2.3c.6-.7 1.3-1.2 2.2-1.5.8-.4 1.7-.6 2.7-.6.7 0 1.4.1 2 .2.6.2 1.2.4 1.6.7.4.3.8.6 1.1 1 .3.4.4.8.4 1.2 0 .2-.1.4-.2.6-.1.2-.2.3-.4.5-.2.1-.3.2-.6.3-.2.1-.4.1-.6.1-.2 0-.4 0-.6-.1-.2-.1-.3-.2-.5-.3-.1-.1-.2-.3-.3-.5-.1-.2-.1-.3-.1-.5 0-.3 0-.6-.1-.9-.1-.3-.2-.5-.3-.7-.2-.2-.4-.3-.7-.5-.3-.1-.7-.2-1.1-.2-.6 0-1.1.1-1.6.4-.5.2-.9.6-1.2 1a4.84 4.84 0 0 0-1.1 3.2c0 .8.1 1.6.3 2.4.2.8.5 1.4.9 2 .4.6.9 1 1.4 1.3a4.14 4.14 0 0 0 3.5.2c.4-.2.8-.5 1.2-.8.3-.3.6-.7.9-1.1.2-.4.4-.9.6-1.4l.8.3c-.2.8-.5 1.6-.9 2.2-.4.7-.8 1.2-1.3 1.7s-1.1.8-1.7 1c-.6.3-1.3.4-2.1.4zm15.5 0a6.92 6.92 0 0 1-5-1.9 8 8 0 0 1-1.5-2.1c-.3-.8-.5-1.7-.5-2.6 0-1 .2-1.9.5-2.7.3-.9.8-1.6 1.4-2.2.6-.6 1.4-1.1 2.2-1.5.9-.4 1.8-.6 2.8-.6 1 0 1.9.2 2.8.5.9.3 1.6.8 2.2 1.4a8 8 0 0 1 1.5 2.1c.3.8.5 1.6.5 2.5 0 1-.2 1.9-.5 2.8-.4.9-.8 1.7-1.5 2.3s-1.4 1.2-2.2 1.6c-.8.2-1.7.4-2.7.4zm.4-1c.5 0 1-.1 1.4-.4.4-.3.8-.6 1.1-1.1.3-.4.6-1 .7-1.6.2-.6.3-1.2.3-1.9 0-1-.1-1.9-.2-2.7-.2-.8-.4-1.6-.8-2.2s-.8-1.1-1.4-1.5c-.6-.4-1.3-.5-2.2-.5-.4 0-.9.1-1.3.4s-.8.6-1.1 1c-.3.4-.6 1-.8 1.5-.2.6-.3 1.2-.3 1.9 0 1 .1 1.9.3 2.7.2.8.5 1.6.9 2.2.4.6.9 1.1 1.4 1.5.7.5 1.3.7 2 .7zm9-12.5h2.6v2.4c.8-.9 1.6-1.6 2.5-2 .9-.4 1.7-.7 2.6-.7.5 0 .9.1 1.3.3.4.2.8.5 1.1.9s.5.8.7 1.3c.2.5.3 1 .3 1.6v9.5h-2.6v-9c0-.9-.2-1.5-.6-2-.4-.4-.9-.7-1.5-.7-.3 0-.6 0-.9.1s-.6.2-.9.4c-.3.2-.6.4-1 .6-.3.2-.6.5-.9.8v9.8h-2.6l-.1-13.3zm22.4 0V35h-3.5v12.1H146V35h-2.8v-1.1h2.8v-1.5c0-.7.1-1.4.4-2 .3-.6.6-1.2 1.1-1.7.4-.5 1-.8 1.6-1.1.6-.3 1.2-.4 1.9-.4.6 0 1.1.1 1.6.2s.8.3 1.1.5c.3.2.6.4.7.7.2.3.2.6.2.9 0 .2 0 .4-.1.5-.1.2-.2.3-.3.4-.1.1-.3.2-.4.2s-.3.1-.5.1c-.3 0-.6-.1-.7-.2-.2-.1-.3-.3-.4-.5-.1-.2-.2-.4-.2-.6-.1-.2-.1-.4-.2-.6s-.2-.3-.4-.5c-.2-.1-.4-.2-.8-.2-.3 0-.5.1-.7.2l-.6.6c-.2.2-.3.5-.4.8-.1.3-.1.6-.1 1v3.1l3.3.1zm4.5-6.8c.2 0 .4 0 .6.1.2.1.3.2.5.3.1.1.2.3.3.4.1.2.1.3.1.5s0 .3-.1.5-.2.3-.3.4c-.1.1-.3.2-.5.3s-.4.1-.6.1c-.2 0-.4 0-.6-.1s-.3-.2-.5-.3-.2-.3-.3-.4c-.1-.2-.1-.3-.1-.5s0-.3.1-.5.2-.3.3-.4c.1-.1.3-.2.5-.3.2 0 .4-.1.6-.1zm-1.3 7.3l1.8-.8h.8v13.5h-2.6V34.4zm7.3-.5h2.6v2.5l.8-1.1.9-.9c.3-.3.6-.5 1-.6.3-.1.7-.2 1-.2.3 0 .6 0 .8.1.2.1.5.2.6.3.2.1.3.3.4.5.1.2.2.4.2.6 0 .4-.1.7-.4 1-.3.2-.6.3-1.1.3-.3 0-.5 0-.7-.1-.2-.1-.3-.1-.5-.2s-.3-.1-.4-.2c-.1-.1-.3-.1-.6-.1-.2 0-.3.1-.5.2s-.4.2-.5.4c-.2.2-.4.4-.5.7-.2.3-.4.5-.5.8V47h-2.6V33.9zm10.7 0h2.6v2.5c.3-.4.7-.7 1.1-1 .4-.3.9-.6 1.3-.9.4-.3.9-.5 1.3-.6s.9-.2 1.3-.2.8.1 1.2.2c.4.1.8.3 1.1.6.3.2.6.5.9.9.2.3.4.7.5 1.1.2-.4.5-.7.9-1.1.4-.3.8-.6 1.3-.9.5-.2 1-.5 1.5-.6.5-.1 1-.2 1.5-.2s1 .1 1.4.3c.4.2.8.5 1.1.9.3.4.6.8.8 1.3.2.5.3 1 .3 1.6v9.3h-2.6v-8.9c0-.4-.1-.7-.2-1-.1-.3-.3-.6-.5-.9-.2-.2-.5-.4-.8-.6-.3-.1-.6-.2-.9-.2-.4 0-.7 0-1.1.1-.4.1-.7.2-1.1.4l-.9.6c-.3.2-.5.5-.7.7v9.8H182v-8.9c0-.4-.1-.7-.2-1-.1-.3-.3-.6-.5-.9-.2-.2-.5-.4-.8-.6-.3-.1-.6-.2-.9-.2-.3 0-.7.1-1 .2a3 3 0 0 0-1 .4c-.3.2-.7.4-.9.6-.3.2-.5.5-.7.7v9.8h-2.6l-.1-13.3z"/>
</svg>
