<svg width="100" height="100" viewBox="0 0 100 100" xmlns="http://www.w3.org/2000/svg">
    <path class="uk-text-primary" fill="#02a9e6" opacity=".25" d="M84.3 26.2c-5-6.7-12.1-12.5-20.4-14.5-4.3-1-9.2-.7-12.4 1.5-2.3-2.8-4.7-5.5-6.8-8.4-1.6-2.2-8.4-5.1-10.3.5-.1.3-1.3 7.1-1.7 9.8-17.1 7-30.8 21.8-25.6 41.4 5.1 19.3 20 35.8 41.3 34 .3 0 .6-.1.8-.2.1.2.3.4.4.5 3.6 4.6 10.4 10.3 15.6 4 .8-1 1.2-2.1 1.4-3.4.2-1.6-.9-3.4-.7-4.8 0 0-.1-.1-.2-.1.2-.1.5-.1.9-.2.7-.2 1.4-.3 2-.5 1.9-.5 3.8-1.3 5.5-2.1 6.2-3.1 11.5-8.4 14.8-14.5 7.5-13.7 4.6-30.7-4.6-43zM40.4 64.3c-5.9.1-9-10.2-9-14.8 0-2.1 2-6.3 2.8-8.1.3 1.7 2.8 4.7 7.9 4.2 4.4-.4 10-9.9 11-10.9 3 1.7 7.2 4.5 9.5 7.5 3.5 4.6 2.7 10.5.7 15.4-.7-3.5-7-3-13.8 3.2-1.9 1.8-7.1 3.4-9.1 3.5zM14.7 56c-3-18.4 6.2-32 25.4-35.7 0-1.9 0-6.6.2-8.4 0 0 10 12.6 10.6 13.2-1.1 1.5-8.2 10.1-10.6 13 0-1.3.1-7.3.2-8.6-11.2.9-18 13.3-15.9 24 1 9.8 6.9 19 18.5 18.9.1 3.2 0 6.1.2 10.5C32.1 84.5 17.2 71.4 14.7 56zm62.6 15.1c-3.3 3.9-8.5 8.2-19.2 10 0 1-.1 7.4.1 9.2-1.9-3.1-9.9-13.1-10.6-14.4C48.9 73.4 56.9 65 58 63.6c0 2-.2 8.9-.2 9.2 6.4-.9 9.1-3.4 11.5-6.1 6-6.8 4.7-13.4 2.8-22.5-.8-3.8-6.2-14.8-17.6-15.6-.2-.9 1.6-6.8.9-10.3 5-.8 12.3 3.7 12.9 4 2.8 1.2 10.7 9.9 13.4 17.8 3.6 11.1 3.4 21.8-4.4 31z"/>
    <path fill="#333" opacity=".2" d="M29.2 34.8c-5.7 5.5-5.7 13.2-4.4 20 .9 11.5 9.3 17.7 18.2 17.9-.2 3.7.1 10.4.1 10.4H40s.6-5-.4-6.9c-17.5-6.4-23.5-27-12.9-41.8 0-.3.2-.6.5-.9.1-.1.3-.2.4-.3l.3-.3c.3-.3.6-.5.9-.5C32.2 30 36 28.1 40.1 27c1.2-.3 1.9.7 1.8 1.7.4.2.8.6.8 1.3v.2c1.6-2.1 3.2-4.1 4.9-6 1.3-1.5 3.4.7 2.1 2.1-2.5 2.9-5.1 6.4-7.3 9.5-.8 1.2-2 .4-2.1-1.1 0-1.4.2-3.8.2-5.3-4.6.3-8.3 3.1-11.3 5.4zm50.9.9c-.7-1.8-3.7-5.8-3-4 3.8 9.8 5.4 21.2.9 31.1C73.7 72 64.4 79 53.9 77.3c-.1 0-1.4-.7-1.9-.6-.3-.3-.6-.6-.9-1-.1-.7-.6-1.3-1.4-1.3h-.4c-1.3-.1-1.9 1.7-1.1 2.6 2.6 2.7 7.9 10.7 9.9 13.2-.2-2.5.2-6.7 0-9.1 8.7-.6 17.2-6 21.7-13.7 6.6-11.2 4.7-20.2.3-31.7zM68 33.2c-2.8-3.2-7-4.6-10.1-7.6.1-1.2.2-2.5.1-3.8-.1-1.9-2.5-2-2.6-.1-.1 1.5-.7 5.6-.9 6.9 2.9.1 7 1.8 8.8 3 3.8 2.5 6.2 5.9 7.5 10.4.6 2 1.4 3 1.3 1.1-.4-3.6-1.7-7-4.1-9.9z"/>
    <path fill="#333" opacity=".9" d="M84.5 49c-.7-7.2-3.5-14.3-8-20-2.3-2.9-5.2-5.6-8.5-7.4-3.4-1.8-7.6-3.8-11.5-3.6-.6 0-1.1 0-1.3.5-.1.3.1 1 .1 1.4 0 .6 0 1.2-.1 1.7-.3 2.5-1.1 5-1.3 7.5 8-.3 14 6.4 16.4 13.4 2.6 7.3 3.8 15.8-1.1 22.4-2.5 3.3-6.1 6.1-10.3 6.7-.2-3.5-.2-7 .1-10.4-2.2 2.8-4.5 5.5-6.9 8.1-1.1 1.3-2.3 2.5-3.4 3.8-.5.6-2.3 2-2.1 2.8.1.4 2.1 2.3 2.7 2.9 1.1 1.2 7.2 9.7 9.4 12.6-.1-2-.4-10.3-.3-10.4 6.4-.5 9.6-2.5 10.6-3 3.5-1.8 6.6-4.3 9.1-7.3 5.2-6 7.1-13.8 6.4-21.7zm-2.2 11.2c-1.8 6.9-6.4 12.9-12.5 16.6-3.1 1.9-6.7 3.2-10.3 3.5-.3 0-1.4 0-1.7.3-.3.4 0 1.2 0 1.6.1 2.2 0 4.4 0 6.5-2.9-4.1-5.3-8.6-8.8-12.3-.6-.6-.5-.7 0-1.3.7-.8 6-6.3 7.8-8.3 0 2.3.2 4.7.2 7 7.6-.3 14.5-5.8 16.8-13 1.5-4.8.9-9.8-.4-14.5-1.2-4.2-2.8-8.5-5.7-11.8-3.2-3.6-7.9-6.3-12.8-6.2.2-3.3 1.4-6.7.5-10 9.1.4 16.7 6.7 21.4 14 5.2 8.2 7.8 18.4 5.5 27.9zM39.5 37.9c.2-2.6.1-5.1 0-7.7-7.7.9-14 8.4-14.7 15.8-.3 3.9.2 8 1.1 11.8.9 3.8 2.4 7.5 5.4 10.2 3.2 2.9 7.7 4.3 12 4.4-.1 3.5-.1 7.1-.2 10.6 0-2.2-.3-8.2-.3-9 0-.5.3-1.2.1-1.4 0 .9-5.6-.5-6.4-.8-4.6-1.7-8.2-4.7-10.2-9.2-2-4.4-2.9-9.7-2.9-14.5-.1-4.8 1.4-9.1 4.5-12.7 3.4-4 8.1-6.8 13.4-6.9.1 2.3.2 4.6.2 6.9 1.5-1.9 5.9-7.1 6.5-7.8.5-.6 1.5-1.4 1.5-2.2 0-.8-1.1-1.8-1.6-2.3-.7-.8-5.2-6.2-6.7-8.1v5.4c0 .5.1.6-.3.9-.4.4-1.9.3-2.5.4-3.3.6-6.6 1.7-9.5 3.4-5.3 3-9.7 7.8-12.1 13.3-2.6 5.9-2.4 12.9-1.1 19.1a33.6 33.6 0 0 0 8.7 16.8c4.7 4.9 11.6 9.6 18.7 8.9-6.8 1-13.6-3.1-18.5-7.4-5.1-4.5-8.6-10.6-10.2-17.2-1.6-6.7-1.9-14.2.8-20.6 2.4-5.8 7-10.9 12.3-14.1 3.3-2 7-3.3 10.8-4 .7-.1.8-.1 1-.7.3-.8 0-2.2 0-3 0-2.4-.1-4.8-.2-7.2 2.2 3 9.1 11.4 10.2 12.8.7.9 2.1 2.2 2.5 3.3.4 1.2-1.3 2.6-2 3.4-1.2 1.4-8.3 9.9-10.6 12.7l.3-3.3z"/>
</svg>
