<svg width="100" height="100" viewBox="0 0 100 100" xmlns="http://www.w3.org/2000/svg">
    <path class="uk-text-primary" fill="#02a9e6" opacity=".25" d="M75.4 18.4c.1 0 .1-.1.2-.1 1.6-1.3 2.6-3.3 2.5-5.4-.1-2-1.2-3.8-3-4.7-1.1-.6-2.3-.4-3.4-.4a4 4 0 0 0-5.6-3.2c-1.4-1.5-3.4-2.2-6-1.3-1.2.4-2.1 1.1-2.9 2.1-.9.2-1.7.8-2.2 1.8-.8 1.5-1.3 3-1.6 4.5-14.5-1.3-29.1 4.3-38.3 15.8-10.1 12.7-12 31-4.8 45.6C17.4 87.5 33.1 97 49.2 96.8c17.7-.2 36.2-9.4 41.5-27.2 4.9-16.3.4-41.8-15.3-51.2zm4.7 55.7c-9.3 15.2-33.8 18.5-48.4 10.2-14.9-8.5-20.1-25.7-15.2-42.1 5.3-17.8 28.8-27.5 46.8-21.3 12.8 5.5 18.5 15.7 20.4 24.3 2.1 9.5 1.7 20.3-3.6 28.9z"/>
    <path fill="#333" opacity=".04" d="M70.6 83.3c-2.2.8-8.5 1.4-8.7 1.5-8.2 1.5-17.6 2.5-24.8-1.3-7.3-3.7-13.8-12.5-18.2-20.3-2.7-8-2.1-17.7-.5-25.8-2.6 6.1-4.8 12.6-3.6 22S24 80 30.1 83.7c7.3 4.9 23.6 6.5 30.9 4s10.8-4.8 9.6-4.4z"/>
    <path fill="#333" opacity=".2" d="M76.2 29.9H76c-.1-.4-.4-.7-.9-.7-1.4-.1-5.1 0-5.2-.1.6-.9 1.3-1.7 1.9-2.6.8-1-1-2-1.7-1-.5.7-1 1.3-1.5 2l-.3-2v-1.8c.1-1.3-1.9-1.3-2 0 0 .2-.1 5.5.4 6.3l-2.6 3.2c-5.3-3.7-14.2-3.4-17.7-2.8-5.6.7-14.5 5.4-17.5 10.8-4 5.3-4.4 17.4-.4 24.4 3.8 6.1 10.7 11.6 17.8 12.8 4.2.4 9.1 0 12.9-1.2 10.2-3 15.3-11.4 15.5-19.3-.1-2.7 0-5.8-.7-8.3-1-5-5.7-13.6-8.1-15.2l2.7-3.6c.1.1 5.1.8 7.3 1.1 1.2.1 1.4-1.8.3-2zM63.8 59.8c-4.1 8.1-11.2 9.8-19.3 7-8.1-2.8-10.6-14-7.7-19.7 4.1-5.9 8.4-7.2 13.1-7.7 3.1-.4 5.7.6 8.2 2l-2.5 3.3c-.5-.4-1.1-.8-1.7-.5-.5.3-2.7 4.6-3.3 4.6-2-.1-3.7 1.7-4.5 3-.8 1.6 0 4.3 1.8 5.6 1.5 1 4 1 5.5.1 1.8-1.1 2-3 1.7-5 .5-.3.9-.6 1.4-.9 1.2-.8 4.1-2.5 4.3-2.5.8-.1 1-1.5.2-1.8-.7-.4-2.8-1.6-3.1-1.7.8-1.1 1.4-1.7 2.2-2.8 4.7 4.1 6.3 11.5 3.7 17z"/>
    <path fill="#333" opacity=".9" d="M55 52.5c-.3-.7-.7-1.4-1.2-1.9-.5.4 0 .8.3 1.2.4.6.6 1.3.7 2 .1 1.3-.4 2.5-1.4 3.3a4.8 4.8 0 0 1-5.9-.2c-2.6-2.3-1.1-7.1 2.1-8-4 .7-5.3 6.3-1.7 8.5 3.2 2 8.9-.5 7.1-4.9zm9.8-3.7c-1.5-4-4.6-7.1-8.6-8.6-.1.3 2.5 1.7 2.7 1.8 1.3 1 2.4 2.1 3.3 3.5 1.8 2.9 2.8 6.3 2.4 9.7-.6 5.9-4.7 11.1-10.6 12.4-5.9 1.3-12.7-1.4-15.9-6.6-3.1-4.9-3.1-11.8.8-16.2 2.4-2.8 5.9-4.6 9.5-5.3 1.1-.2 2.1-.2 3.2-.1.2 0 2.5.3 2.6.1-5.5-1.4-12.1.7-15.9 4.8C34.4 48.4 34 55 36.4 60c3.8 8 15.3 11 22.6 5.9 5.3-3.7 8-11 5.8-17.1zm20.3 4.8c-.3-12.4-5.7-25.5-17-31.8 1.5-.4 3.5-.4 4.9-1.2 1-.6 1-2.1-.2-1.9-2.9.4-5.4 1.1-8.3 1.4.4-.9 1-2.4 1.5-3.3 1-.3 2.8-.9 3.6-1.1 2.2-.5 2-.6 4.2-1.2 1.7-.5 1.6-2.3-.4-2-2.2.3-4.2 1.3-6.3 1.8.6-1.3 2.7-3.8 2-5.3-.5-1.2-1.6-.3-2 .4-.8 1.5-1.4 3.1-2.1 4.6-.7-2.1-1.4-4.2-2.1-6.4-.2-.7-.7-2.7-1.7-2.4-1.4.4-.5 2.7-.1 3.5.7 1.8 1.5 3.7 2.1 5.5.3.9.4 1.2.6 2.1-.1.6-1.4 2.8-1.8 3.7-.8-1.2-1.8-4.1-2.2-5-.2-.5-1.6-5.2-2.8-3-.4.8.2 2.2.5 2.8.4 1.3 1 2.5 1.5 3.7-11.2-1.8-23.5 1.9-32.3 8.8-8.8 6.9-12.7 18.1-12.4 29.1.2 6.1 2 11.7 5.4 16.8 3.2 4.9 7.5 9.5 12.7 12.4 9.9 5.8 23.2 5.4 33.6.9 6-2.5 11.2-6.7 14.4-12.3 3.6-6.2 4.9-13.5 4.7-20.6zm-2.4 13.6c-3.3 11-13.4 17.7-24.2 19.8-6.8 1.3-14 1.1-20.5-1-6.2-2.1-11.2-6.4-15.1-11.5-8.1-10.5-10.1-26-3.6-37.9C24.7 26.5 35.9 21.2 47 20c3.8-.4 8.7-.6 12.4.4.4.6.8 1.5 1.1 2.6-.2 1.4-.7 2.8-1.2 4.1-.5 1.1-.9 2.2-1.3 3.4-8.7-1.7-18.4.7-25.1 6.5-7.3 6.3-9 16.2-6.1 25.2C29.2 69.7 35.4 76 43 78.3c7.6 2.3 17 .9 23.3-4.2 7.4-5.9 10.3-15.8 8.1-24.9-1.1-4.3-2.9-8.5-5.6-12.1-1.3-1.7-2.7-3.2-4.5-4.3-1-.6-3-1.7-4.2-2H60l.6-1.5c.5-1.3 1-2.5 1.6-3.8.4-1 1.3-2.3 1.6-3.2 1.4.2 2.1.4 3.3 1.1 1.1.6 2.1 1.2 3.1 2 7.5 5.4 12.4 14.2 13.8 23.3.9 6 .5 12.5-1.3 18.5zM59.6 31.6c4.5 1.5 7.9 4.8 10.3 8.8 2.8 4.7 4.9 10.1 4.8 15.6-.1 9.2-6.3 17.7-14.9 20.7-10.4 3.6-22.3.7-28.9-8.5-5.2-7.2-6.7-17.8-2.4-25.8C31.1 37.5 36 34 41.1 32c3.2-1.2 6.5-1.8 9.9-1.8 1.6 0 3.2.1 4.8.4.5.1 1.3.4 1.8.5-1 2.6-3.7 9.9-4.1 10.9-.2.6-.5 2.6-1 3-1.3-.4-2.9-1.1-3.9-1.5.9 3.5.7 7.3 1.8 10.7 2-3.2 5.2-5.2 7.9-7.8-.4.4-3.7-.7-4.1-.8 1.8-4.6 3.5-9.3 5.4-14z"/>
</svg>
