<svg width="420" height="380" viewBox="0 0 420 380" xmlns="http://www.w3.org/2000/svg">
    <path class="uk-svg-default-background" fill="#fff" d="M349.3 241.5c-14.5-11-34.3-27.3-55.7-16.4 3.5 8.2 16.9 34.1 24.4 51.9-.3.7-.6 4.4-.7 5.3-.2 2.8 5.3 6.7 7.3 10.5 1.5 3-4.7 8.2-8.8 14.3 6.8 8.3 16.9 21.9 23.5 31.2-8.3-6.3-21.4-19.3-29.1-26.6-1.5 1.3-10.8 7.7-13.9 8.7-4.3 1.4-8.8-6.9-11.9-9.7-2.6 1.3-4.7-.9-9.8-3.6-12-6.6-34.8-19.8-41.3-24-8.2 31.2 26.2 70 51.7 87.4-6.3-.8-30.3-10.2-38.7-15.7-13.1-6.7-25.9-15.8-36.1-26.5-18.7-19.7-29.8-48.7-22.5-78.1-18.5-15.2-39.7-37.1-45.7-43.9-8.4-9.3-27.5-32.7-40.4-71.5-8.7-26.3-13-59.2-13.7-82.8C85 48.9 63.5 25.8 59 20.9c-2.6.6-4 .7-6.1-.1-3.8-1.4-3.2-7.3-1-9.5 4.4-4.3 11.8-1.4 11.9 4-1.3 2.8-3 4.3-1.9 6 8.7 7.1 17.5 17.5 25.2 25.5.9.2 1.9 3.3 3.8 3.4 16.7.1 40.2 7.5 65.1 19.9 61 30.4 100.8 94.7 110.4 108.7 35.7-7.6 60.6 11.2 78.4 30.1 17.3 18.3 29.6 50.4 33.2 72.4-5.5-15.9-18.4-31.9-28.7-39.8z"/>
    <path class="uk-text-primary" fill="#02a9e6" opacity=".25" d="M348.9 202.5c-19.1-20.4-51.9-42-81.1-33.2a4 4 0 0 0-1.9-.2c-25.1-51.9-69.4-93-123.2-114.1-16.1-6.3-32.8-10.7-49.9-13.3-6.4-8.3-13.4-15.8-21.2-22.7 0-.1.1-.3.1-.4.9-7.8-5-15.5-13-16.2-7.6-.6-15.3 5.1-16.1 12.9-.3 3.3.5 6.9 2.9 9.3 3.2 3.3 7.9 2 11 4.8 4.4 3.9 8 9.2 11.9 13.7L80 56.5c2.2 55.3 21.3 109.5 54.7 153.7.2.4.4.7.7 1 13.3 14.6 27.8 28 43.3 40.2 0 .2-.1.4-.1.6-3.3 30 7.6 60.7 28.2 82.6 11 11.7 24.8 20.4 39.2 27.4 7.6 3.7 15.3 6.9 23.1 10.1 7.3 3 14.8 7.1 22.9 5.1 1 .2 2 .1 3-.4.4-.2.8-.4 1.3-.6.9-.4 1.6-1.5 1.8-2.4.3-1 .1-2.2-.4-3.1-.5-.7-1.1-1.2-1.8-1.6-.2-.5-.6-1.1-1.2-1.5-23.5-18.4-50.7-40.4-54.8-71.5 13.1 6.9 26.5 13.6 39 21.4 5.9 3.7 9.4 9.6 17 9.7 5.6.1 10.3-2.5 14.5-5.7 9.8 10.3 20.7 19.4 32.7 27.2 3 1.9 6.8-1.3 5.9-4.5-4-14.6-11.6-27.7-22.2-38.4 3.5-3.4 6.3-7.5 6-12.7-.1-2.5-1.1-4.8-2.7-6.7-1.5-1.8-4-3.2-5.1-5.2.2-.7.3-1.4 0-2.3a199.4 199.4 0 0 0-20.7-49.8c8.4-2.4 17.2 1.6 24.5 6.1 7.3 4.5 14.1 10 20.1 16.1 11.9 12.2 20.8 27 26 43.2 1.4 4.3 7.7 3.5 7.9-1.1 1.1-33.5-11-66.5-33.9-90.9zm.4 39c-14.5-11-34.3-27.3-55.7-16.4 3.5 8.2 16.9 34.1 24.4 51.9-.3.7-.6 4.4-.7 5.3-.2 2.8 5.3 6.7 7.3 10.5 1.5 3-4.7 8.2-8.8 14.3 6.8 8.3 16.9 21.9 23.5 31.2-8.3-6.3-21.4-19.3-29.1-26.6-1.5 1.3-10.8 7.7-13.9 8.7-4.3 1.4-8.8-6.9-11.9-9.7-2.6 1.3-4.7-.9-9.8-3.6-12-6.6-34.8-19.8-41.3-24-8.2 31.2 26.2 70 51.7 87.4-6.3-.8-30.3-10.2-38.7-15.7-13.1-6.7-25.9-15.8-36.1-26.5-18.7-19.7-29.8-48.7-22.5-78.1-18.5-15.2-39.7-37.1-45.7-43.9-8.4-9.3-27.5-32.7-40.4-71.5-8.7-26.3-13-59.2-13.7-82.8C85 48.9 63.5 25.8 59 20.9c-2.6.6-4 .7-6.1-.1-3.8-1.4-3.2-7.3-1-9.5 4.4-4.3 11.8-1.4 11.9 4-1.3 2.8-3 4.3-1.9 6 8.7 7.1 17.5 17.5 25.2 25.5.9.2 1.9 3.3 3.8 3.4 16.7.1 40.2 7.5 65.1 19.9 61 30.4 100.8 94.7 110.4 108.7 35.7-7.6 60.6 11.2 78.4 30.1 17.3 18.3 29.6 50.4 33.2 72.4-5.5-15.9-18.4-31.9-28.7-39.8z"/>
    <path fill="#333" opacity=".04" d="M256.7 239.8c-.7-.8-17.7-18.3-19.2-17.4-.4-.4-2.1-2.7-2.3-2.2 1 1.7 9.2 16.9 15.6 25.1 5.1 6.5 16.4 20.2 18.2 22.2 2.5 2.8 27.2 30.1 30.8 33.5 1.3 1.3 16 16.1 18.6 18.5.4.4 20.4 19.2 20.5 17.9 0-.6-17.7-22.9-19.3-24.9-1.8-2.2-20.9-26-22.3-27.5-3.2-3.4-15.4-18.4-27.4-31.1a719.7 719.7 0 0 1-13.2-14.1zm76.2-42.6c-1.1-.8-10.9-10.1-27.8-16.8-2.4-.9-10.3-3.7-26.2-3.6-1.4 0-12 1.1-12.6 1.7.9 2.1 25.5 44.3 27 46.6 3.6-2.2 10.7-4.3 13.9-4 11.9 1.1 23.8 7 29 10.1 1.2.7 22.9 17.8 26.8 22.7 3.9 5 14 24.6 14.4 24.6.7 0-8.3-26.6-9.8-32.3-2.1-7.8-12.1-24.2-16.3-29.5-1.9-2.3-10-12.8-18.4-19.5zm-135-58.5c-2.7-1.4-11.2-4.1-14.6-4-5.4.1-10.4 1.9-14.8 5.1-4.7 3.5-8.9 8.3-11.1 13.6-2.1 5-2.4 10.8-.9 16.1.8 2.9 2.7 5.6 4.6 8.1 4.5 6.1 14.3 10.6 21.3 11.2 12.5.9 22-9.1 25.1-16.8 2.2-5.5 2.8-11.8 1.5-17.6-1.2-5.5-5.2-12.3-11.1-15.7zm-28.5 15.5c-.7.7-.8 2-.9 2.9-.2 1.3-.6 2.5-.9 3.7-.7 3-.6 6.1-.1 9.1.2 1.5.5 3.1 1.3 4.4.6 1 1.9 1.9 2.1 3.1.3 1.6-1.2.8-1.9.2-1-.9-1.7-2.1-2.5-3.1-3-4.1-5.8-9.5-4.7-14.8.4-2.2 1.9-5.9 4.3-6.5.5-.1 4.5-.2 3.3 1zm5.3-8.6c-2.3.2-2.2 3.1-3.6 4.3-1 .9-4.2.8-3.7-1.1.3-1.3 2.2-2.5 3.2-3.2.9-.6 1.9-1 2.9-1.1.4 0 1-.1 1.3.2.3.3.5.9-.1.9zM58.3 14.9c.2.5 1 .9 1.4 1.4.9 1.3.4 2.8-.8 3.7-2.3 1.9-5.1.7-6.9-1.2-2-2.2-1.8-5.4.5-7.3 2-1.6 5.9-1.5 5.9 1.7 0 .5-.3 1.2-.1 1.7zM168 90.4c-2 5.8-3.5 8.5-6.6 13.7-2.9 4.9-6.1 8.7-10.1 12.8-3.9 4-8.7 8.1-13.4 10.9-8.6 5.2-18.1 9.4-28.1 11a47 47 0 0 1 6.5 0c.9.1 1.4.5.6 1.3-.7.6-1.9.5-2.7.6 1 1.2 1.4 2.7 2 4.1.5 1.3 1.1 2.5 1.7 3.7 5.6 11.8 12 23.1 19.6 33.7 7.7 10.6 14.9 21.4 23.8 31.1 17.9 19.7 39.4 35.2 60.7 50.9 2.4 1.8 5.2 3.2 7.8 4.9 2.7 1.8 5.4 3.5 8.1 5.2 5.6 3.5 11.2 6.9 17 10.2 5.7 3.3 11.4 6.4 17.2 9.4 2.8 1.4 5.5 2.9 8.3 4.2 2.4 1.1 4.3 2.4 4.9 5.1.1.5 0 1.3.4 1.7.3.4 1.4.5 1.9.6 1.2.2 2.5.4 3.8.2.6-.1 4.7-2.2 3.9-.2-1.1.9-8.2 4.3-12.5 5.7-1-.6-22.1-11.9-28-15.2-11.4-6.4-21.3-13.6-21.6-13-2.4 6.9-1.3 17.5 1.7 26.3 5.1 15 26.3 47.8 48.8 59.7 1.6.9.5 1.8-1.2 1.1-1.8-.7-26.2-9.1-46.7-21.1-7.8-4.5-28.1-20.2-37-34.6-5.5-8.9-10.1-21.5-11.8-29.1-1.8-6.6-3.2-23.4.6-35.4-8.9-7.1-27.3-23.7-35.1-32.2-6.6-7.2-17.7-22.1-27.9-34.6-8.1-9.8-20.7-40.5-21.1-41.6-.1-.4-8.6-28.1-10.3-37.8-.4-1.5-6.8-41.1-5.1-51.6.3-2.1 3.4-3.2 5.2-1.9.9.7 1.5 1.7 2.1 2.7.5.8.9 2.2 1.7 2.9.7.6 1.5.2 2.3.5.9.3 1.2 1.4 1.9 2.1 1.3 1.4-3.3 5.7-8.5 9.3 1 0 1.4 1.9 1.5 2.6.4 1.5.9 3.1 1.4 4.6 1.3 3.9 6.1 19.5 7.4 23.3.3.8.6 1.7 1.2 2.3.5.4 1.3.7 1 1.5-.4 1-2.1.5-2.5 1.4 9.1-1.1 18.5-9 21.5-11.3 6.2-4.7 12.7-17.2 14.9-21.6 1.7 1.4 5.6 4.3 6 4.5 1.1.6 2.2 1.2 3.2 1.9 2.6 1.6 5.2 3.3 7.6 5.3 2.4 1.9 4.6 3.9 7.3 5.5 1.2.7 2.5 1.1 3.8 1.5 1.5.3.8 1.3.9 1.2zm2.2-6c.1-1.4-1.7-1.9-2.7-2.4-1.3-.6-2.5-1.2-3.8-1.8-2.5-1.2-4.9-2.8-7.3-4.2-2.5-1.5-10.6-5.4-12-6.1-1.3-.6-2.7-.9-4-1.5.9-1.7 1.7-4.5 4.2-4.1 1.2.2 19.9 10.2 25.7 13.8 2.1 1.2.5 4.5-.1 6.3z"/>
    <path fill="#333" opacity=".2" d="M161.7 134.9c-10 6.4-17.6 21-14.8 32.6 1.5 6.2 4 13 8.6 17.6 2.2 2.1 13 7.5 7 1.9-8.2-7.8-15.1-16-13.4-28.2.6-4.6 2.5-9.4 5.1-13.2 1.7-2.5 3.8-4.6 5.8-6.9.2-.2 3.6-5 1.7-3.8z"/>
    <path fill="#333" opacity=".16" d="M330 326c-5-6.8-8.6-11.5-14.1-18.3-.4-.9-.3-1.6 0-1.8.5-.5 1.6-3.8 2.1-4.5 1.2-1.6 2.8-1 1-4 .3.3 4-1.6 1.8-3.2-.4-2.1-5.8-5.5-7.7-5.2-.2 0-6.1 6.9-6.2 7.3-.1.4-24.7-28.9-25.6-28.7-.6.1 13.9 17.1 13.5 18.5-.2 0-9.4-9.6-10.2-10.4-4.7-5.3-9.5-10.5-14.2-15.8-1.8-2-22.6-23.6-22.6-24.5-.9 1.5 14.2 17.7 15.3 18.9 4 4.7 7.9 9.5 12 14.1 1.3 1.6 8.6 7.7 8.1 9.8 0-.6-8-7.6-9.1-8.7-4.6-4.7-9.4-9.4-13.7-14.4-7.8-9.2-14.6-19.3-20.8-29.6-1.5-2.4-4.9-7.7-2.8-2.3 4.6 11.7 21.7 32 24.9 35.7 0 0 36.9 41.1 38.7 42.9-1.8 1.5-5.2 4.2-15.4 8.5 1.3 3.1 6.4 9 8.9 10.2 2.4.6 13-5.8 16.3-9.1 5.4 6.2 12.6 12.8 19 18.8 1.1 1 7.5 8.6 9.2 7.6.8-.3-7.7-11-8.4-11.8zm-13.1-28.8c.1 0 .1.1 0 .1v-.1zM88.5 52.4c-.3 3.2-1.6 12-.2 14.9.8 1.7 5.3.2 5.6-2 .3-1.8-3-5.7-3.4-7.4-.2-.5-1.8-8.1-2-5.5zm-35.1-40c.1 3.1-.9 3.4 1.5 6 1 1.1 5 1.3 1.3 2.5-7.3 2.5-6.1-7.7-2.9-10.7 1.9-1.9.1 2.8.1 2.2zm296.4 221.2c-9.2-8.4-20.3-16.2-32.2-20-6.2-2-12.8-3.1-19.4-2.6-1 .1-5.4 1.6-6.2 1.2-1.5-.6-2.7-3.6-3.7-5.2-3-4.9-5.8-10-8.9-14.8-2.4-3.7-5.2-9.3-8.4-12.2-.6-.5-2.1-2-3.1-1.6-1.9.8.7 4.1 1.5 5.3 3.1 5.4 6.4 10.1 9.1 15.5 2.8 5.6 6.5 10.8 9.4 16.3.9 1.6 3.8 8.6 5.4 9.2 2.1.9 5.9-2.5 7.8-2.8 16.7-2.3 33.9 7.8 45 17.1 7.9 6.6 14.7 8.9 30.7 38.9.9-.8-1.6-5.6-2-6.5-5.8-13.9-13.8-27.5-25-37.8zM203.2 144c-2.9-4-7.2-7-12-8.2-.8-.2-8.4-.8-7.2.8.9 1.3 5.3 1.5 6.6 2 2.7.9 5.2 2.1 7.4 4 3.6 3.2 5.8 7.9 6.4 12.7.6 5.2.9 11.7-.9 16.7-1.1 3-2.8 5.7-4.8 8.1-1.4 1.7-5 3.9-5.9 5.8-.9 2-.9 1.8 1.5 1.1 2.5-.7 5.2-3.5 6.9-5.2 4.5-4.6 7-10.3 7.7-16.6 1-8.3-1-14.7-5.7-21.2zm78.5 225.6c-.4-.2-1-.4-1.5-.6h-.1c-2.9-1-6.3-2.1-8-2.7-16.2-6.1-37.5-15.8-52.3-28.8-12.7-11.1-24.8-25-30.5-43.3-.6-1.8-6.4-22.9-2.9-22.9.7 0 3.6 14.8 4.2 16.5 1.9 5.7 4.3 11 7.7 16 13.2 19.7 30.8 33.4 52.2 43 3.2 1.4 7 3.2 9.1 4.6 1 .7 2.3 1.4 3.6 2.2-7.2-6.7-15.3-14.2-20.9-22.3-6.8-9.8-12.5-20.6-16.2-31.9-1.1-3.4-1.8-6.9-2.2-10.4-.1-1.3.5-4.4-.1-5.6-1.6-3.3-10.2-6.7-13.4-9.1-5.3-3.9-10.2-8.2-15-12.7-1.5-1.4-3.2-2.9-4.6-4.4-.4-.4-2.8-3.2-3.1-3.9-2-4.7 3.5 0 5 1.1 3.3 2.6 30 22.8 40.4 28.4-2.4 8.3-1.1 16.3-.2 20.1 1.1 5.1 3.2 10.6 5.4 15.1 4.2 8.6 9.1 16.7 15.5 23.8 6.8 7.5 13.7 14.8 21.4 21.2 5 3.8 10.1 7.3 10 7.6h-.2c.8.7-.8 0-3.3-1zM116.2 122.7c1.4 3.6 3.2 6.1 5.1 9.4 2.1 3.7 1.2 4-2.7 5-3.8.9-8.8 2.1-12.7 1.8-4.2-.4-3.5-2.1-4.6-6.3-.8-2.9-8.6-27.7-7-28.6 1.2-.7 5 .3 6.6.2 2.6-.1 5.2-.5 7.7-1.5.5-.4 7 18.6 7.6 20zm21.3 0c1.5 2.6 1.9 2.7-.5 4.9-1.6 1.4-2.2 1.7-3.9 1-3.7-1.5-8.6-12.5-9.6-16.1-1.6-5.5 1.1-2 4.6-1.8.8-.5 9 11.3 9.4 12zm2.6-1.4c-1.2 1.3-6.5-6.2-5.6-7.2.6-.3 1.1-.2 1.4.4 1.1.5 5.2 5.7 4.2 6.8z"/>
    <path fill="#333" opacity=".9" d="M341.3 339c-5.6-7.8-11.6-15.4-17.6-22.9-1.5-1.8-2.9-3.7-4.4-5.5l-2.1-2.7c-.1-.2-.8-.8-.8-1 0-.3 1.2-1.2 1.4-1.5 1.6-1.7 3-3.4 4.3-5.3 1.2-1.7 2.6-3.5 3.2-5.4.7-2.2-.9-3.7-2.3-5.2-.4-.4-5-4.9-5.2-4.7-.3.3 2.7 3.7 3 4.1 1.1 1.4 3.7 3.3 2.8 5.4-.9 2.1-2.5 4.1-3.8 5.9-1.3 1.9-2.8 3.7-4.3 5.4-1.6-2-3.1-4-4.7-6-.8-1-1.6-2-2.3-3-.7-.8-.7-.8 0-1.6.4-.4.8-.9 1.1-1.3 3-3.5 5.6-7.4 7.8-11.5-.4-.2-2.9 4.2-3.2 4.6-1.9 3-4.4 5.8-6.9 8.4-16.2-20.6-34.1-39.7-52.6-58.2-2.6-2.6-5.2-5.1-7.9-7.6-1.3-1.2-2.6-2.3-3.9-3.5-.9-.8-2.6-2.8-3.8-2.9.1 0 .8.8 1 .9l3 2.7c1.8 1.7 3.6 3.4 5.3 5.1 3.4 3.5 6.8 7.1 10.1 10.7 6.8 7.2 13.5 14.5 20.2 21.9 13.3 14.9 25.9 30.5 38.4 46.1 7.1 8.9 14.4 17.6 21.4 26.6-4-3.1-7.6-6.6-11.4-10-3.8-3.4-7.5-6.8-11.1-10.4-7.4-7.1-14.5-14.5-21.5-22.1-7-7.5-13.8-15.2-20.6-22.9-6.8-7.7-13.8-15.3-20.2-23.5-6.9-8.9-13.5-18.4-18.6-28.5-.3.1 2.9 6.3 3.1 6.7a184.58 184.58 0 0 0 17.2 26.1c8.7 11 18.2 21.4 27.7 31.7 5.5 5.9 11 11.7 16.7 17.4-.7.3-1.3 1-1.9 1.4-.9.6-1.9 1.2-2.8 1.8-1.9 1.1-3.8 2.2-5.8 3.1-1.8.8-3.9 1.9-5.9 2.3-1 .2-2-.6-2.9-1.1-1-.5-2.1-1.1-3.1-1.6-8.1-4.3-16.1-8.8-24.1-13.5-15.7-9.2-31.1-19.1-46-29.7-14.6-10.4-28.6-21.5-41.6-33.8-12.8-12.1-24.7-25.1-34.9-39.5a204.75 204.75 0 0 1-25.1-46.5c-.8-2-1.5-4.1-2.2-6.1 6.3 1.4 13.7-.3 19.6-2.5 7.4-2.7 14.2-7.2 20.5-11.8 11.6-8.6 20.6-20.5 25.1-34.3.1-.3 2-7.2 1.6-7.2-.3 0-.7 1.9-.8 2.3-.5 1.7-1.2 3.3-1.9 4.8-3.1 6.7-6.7 13.2-11.1 19.2-4.2 5.8-9 11.2-14.7 15.6-5.9 4.5-12.7 7.6-19.7 10-4.2 1.5-8.4 2.8-12.8 3.3l-3 .3c-.8 0-2.6.3-3.1-.3-.6-.7-.8-2.5-1.1-3.4-.3-1-.7-2.1-1-3.1-2.8-9.1-5-18.3-6.8-27.6 6.7 1.7 13.4-.3 19.3-3.8 3.6-2.1 7.3-4.5 10.6-7 3.5-2.6 6.1-5.5 8.4-9.2 1.2-2 2.4-4 3.4-6.1a21.7 21.7 0 0 0 2.1-5.8c-.3 0-.8 1.2-.9 1.5-.7 1.2-1.5 2.4-2.3 3.5-1.7 2.6-3.4 5.2-5.2 7.8-3.4 4.8-8 9.2-12.8 12.5-4.7 3.2-10.3 4.9-15.9 5.7-1.4.2-2.7.3-4.1.4-.6 0-1.7.2-2.2.1-.6-.2-.2.4-.5-.5-.2-.5-.2-1.1-.3-1.6l-1.8-10.3c-1.2-7.5-2.4-15-3-22.6 2.7.2 5-.8 6.9-2.6 1.1-1 2.3-1.3 3.4-2.1.5-.3 2.8-2.7 2.1-3.3-.9-.8-3.9 3.2-4.3 3.6-2.1 2-5.7 2.2-8.3 3.6-.3-3.7-.5-7.4-.4-11.1 0-1.4.5-3.3 0-4.7-.5-1.4-2.1-2.6-3.1-3.6-4.6-5-9.5-10.2-14.4-15.4-2.5-2.6-5-5.3-7.5-7.9-1.1-1.2-2.2-2.3-3.3-3.5-.3-.3-.7-1.1-1.2-1.2-.6-.1-1.1.3-1.6.5-2.2.7-6.3-.2-6.9-2.8-.5-2.2.8-5.2 2.5-6.6 2.5-1.9 6-1.4 8.3.6 1.2 1 2.4 2.6 2 4.2-.1.5-1.4 2.2-1.2 2.5 3.4-2.6.5-7.1-2.6-8.4-3.7-1.6-7.7 0-9.2 3.7-.6 1.5-.9 3.4-.3 5 .8 1.8 2.9 2.7 4.7 2.9 1.1.2 2.1.1 3.2-.1.8-.2.8-.3 1.4.3.5.5 1 1.1 1.5 1.6 1.9 2.1 3.8 4.1 5.7 6.2 3.7 4.1 7.5 8.1 11.2 12.2 1.9 2 3.7 4 5.6 6.1.9.9 1.7 1.9 2.6 2.8.3.3 1.4 1.2 1.5 1.6.1.5-.2 1.4-.3 1.9-.4 5.1.1 10.5.5 15.6.4 5.5 1.2 11 2 16.5 3.3 21.3 8 42.5 16.1 62.6 7.9 19.6 19.3 37.5 32.8 53.7 13.7 16.4 29.2 31.2 45.5 44.9 1 .8 1.9 1.6 2.9 2.4.6.5.5.4.4 1 0 .5-.3 1-.4 1.5a56 56 0 0 0-1.2 5.9c-.7 4.5-1 9-.9 13.6.2 9.1 2.1 18.1 5.3 26.5 6.7 17.5 18.9 31.6 33.7 42.8 15.3 11.6 32.8 20.1 50.6 26.9 4.2 1.6 8.4 3.3 12.7 4.6.4.1 1.2.5 1.7.4.9-.2.6-1 .1-1.5-.7-.8-2-1.3-2.9-1.9a127.85 127.85 0 0 1-26.1-22c-6.6-7.2-12.4-15.2-17.3-23.7-5-8.6-9.3-18-10.2-28-.4-4-.2-8.2.8-12.1 10.4 6.7 21.1 13 32 18.9 5.2 2.9 10.7 5.4 15.8 8.5.9.5 1.6.9 2.7.7 1.1-.3 2.2-.9 3.2-1.3a61.84 61.84 0 0 0 11.7-6.5c.4-.3 1.6-1.5 2-1.5.3 0 1.5 1.5 1.7 1.7l7.5 7.5c-1.6 1.4-3.3 2.7-5.1 3.7-.8.5-1.7 1-2.6 1.4-.4.2-.9.4-1.3.6-.7.3-.8.5-1.4-.1-1.2-1.2-2.1-2.8-3.2-4.1-1.4-1.5-2.9-3-4.8-3.9 1.8 3.6 4.9 6.6 8.3 8.6-1.3.6-2.7 1.3-4.1 1.6-1.7.4-2.7-.4-3.9-1.5-1.1-1.1-2.2-2.3-3.3-3.4-.6-.6-1.1-1.2-1.7-1.8-.2-.1-1.3-.8-1.3-.8.1.7 1.2 1.8 1.6 2.3l2.4 3c1.2 1.4 2.4 3.3 4.3 3.9 2.1.6 4.4-.8 6.1-1.8 2.3-1.4 4.5-2.8 6.7-4.4l3-2.1c.9-.6.8-.6 1.6.2.5.5 1 1 1.6 1.5 2 1.9 4 3.8 5.9 5.7 3.9 3.7 7.8 7.5 11.8 11.2 4.2 3.9 8.5 7.6 13.1 10.9-.7-1.5-1.4-2.5-2.2-3.6zm-109.8-46.8c-.1 12.7 5 24.8 11.3 35.6a126.74 126.74 0 0 0 39.6 41.5c-21.1-6.9-42.2-15.9-59.7-29.9-16.5-13.2-29.2-30.9-34.5-51.5-3.1-12.2-3.6-25.1-.8-37.4 8.8 7.2 17.8 14.2 27.1 20.8 4.7 3.3 9.4 6.5 14.1 9.6 1.2.8 2.6 1.4 3.7 2.4.7.6.3.2.3.9 0 .4-.2.8-.3 1.2-.5 2.1-.8 4.4-.8 6.8zm148-6.3c0 .4-1.1.4-1.2.4-.6-.3-.5-.8-.6-1.4-.4-2.2-1.3-4.4-2.2-6.5-1.5-3.8-3.4-7.5-5.4-11.1-4-7-8.8-13.4-14.5-19-5.5-5.4-11.7-10.3-18-14.7-6.7-4.7-14-8.4-21.9-10.4-4.5-1.2-9.1-1.6-13.7-.8-1.9.3-4.2.7-5.9 1.9-.2.2-1.4 1.3-1.6.4-.1-.3.6-.7.7-.3-.5-.1-.6.4-.2.3.5-.1.7-.5 1.1-.8 1.2-1 3.3-1.4 4.8-1.8 3.5-.9 7.2-1.1 10.7-.7 7.1.8 13.9 3.2 20.2 6.6 6.5 3.4 12.3 8 18 12.5 5.5 4.4 10.5 9.2 14.8 14.8 4.9 6.5 8.9 13.6 12.2 21-1.2-5.6-2.9-11.1-4.7-16.5-1.7-5.2-3.5-10.5-5.6-15.6-4.1-10-9.3-19.5-16-28.1-6.4-8.3-14-15.6-22.3-21.9-8.2-6.3-17.5-11.9-27.6-14.5-6-1.5-12.3-2.2-18.5-2.3-3.2-.1-6.5 0-9.7.4-1.8.2-3.7 1-5.4.9 17.6 26.8 32.3 55.3 45.5 84.6.3.7 6.2 12.8 5.6 13.2-10.1-20.7-20.3-41.3-31.2-61.6-10.6-19.6-21.9-38.8-34.9-56.9-12.7-17.8-26.9-34.3-43-49.1a261.87 261.87 0 0 0-52.9-37.6c-9.7-5.2-19.8-9.8-30.2-13.5-10.3-3.6-21.4-6.8-32.4-7.4-1.1-.1-2.5.1-3.5-.3-.4-.2-1.5-1.1-1.3-1.7 1 1.1 1.3 1.6 2.9 1.6 1.7.1 3.4.1 5.1.2 3.5.3 7 .8 10.5 1.4 6.7 1.2 13.2 3 19.7 5.1 12.8 4.2 25 10 36.7 16.5 23.4 13 44.2 30.4 61.9 50.4 9 10.1 17.3 20.8 25.2 31.7 4 5.5 7.9 11 11.7 16.6.9 1.3 1.8 2.7 2.7 4 .5.7.9 1.6 1.5 2.2.6.7.1.3.8.3.5 0 1-.3 1.5-.4a56 56 0 0 1 10-1.4c12.9-.7 26 1.7 37.4 7.9a104.7 104.7 0 0 1 28.1 22.8c8.2 9.3 15 19.9 20.2 31.2a250 250 0 0 1 7.6 18.6c2.4 6.5 4.7 13.1 6.2 19.9.3 1.5.7 3.1.9 4.6-.1 1.1.5 3 .2 4.3zm-.3.3c-.3.1-.7.1-.9.1.3-.1.6-.1.9-.1zM66.8 26.1A171 171 0 0 1 87 46.7c-7-6.6-13.8-13.5-20.2-20.6zM164.6 181c7.8 6.4 19.6 9.7 28.9 4.8 8.7-4.6 15.2-13.4 15.9-23.4.4-5.6-1-11.3-4.1-16-3-4.7-7.6-7.6-12.9-9.2-5.6-1.7-11.9-2.4-17.5-.1-5.2 2.2-9.9 6-13.2 10.5-3.9 5.2-6.1 11.7-5.4 18.2.5 6 3.7 11.4 8.3 15.2zm-.2.2c-4.2-3.4-7.4-8-8.8-13.2-1.5-5.7-.7-11.8 1.8-17 2.4-5.1 6.4-9.3 11-12.4 2.6-1.7 5.4-3.3 8.4-4.1 3.1-.8 6.4-.6 9.5-.1 5.2.8 10.6 2.4 14.6 5.9 4.3 3.6 7 9 8.2 14.4 2.5 11.6-2 23.6-11.6 30.5-5 3.6-10.9 4.9-17 3.9-5.8-1.2-11.4-4.1-16.1-7.9zm6.4-49c-3.3.2-6.1 2.6-8.4 4.8-2.4 2.2-4.6 4.6-6.4 7.4a54.1 54.1 0 0 0-4.5 9.4c-1.3 3.3-2.3 6.8-2.3 10.4 0 6.5 3.5 12.6 7.7 17.3 4.6 5.2 10.4 8.9 17.1 11.1 3.8 1.2 7.8 1.9 11.8 1.7 2.1-.1 4.1-.4 6.1-.9.2-.1 3.1-1.1 3.2-.8.1.2-4.5 1.9-5 2-3.5 1.1-7.3 1.2-10.9.8-6.9-.7-13.6-3.7-18.9-8.2-5.6-4.8-10-11.6-11.3-19-.8-4.3-.3-8.8.8-13 1-3.9 2.4-7.8 4.4-11.3 2.2-3.8 5.6-7 9.3-9.4.8-.3 6.8-3.9 7.3-2.3zm41.3 43c1.4-4.9 2.5-10 2.1-15.1-.4-4.9-1.5-9.7-3.2-14.2 5.8 8.5 6.3 20.3 1.1 29.3zM288 310.6c3.3 1.8 6.4 5.3 7.8 8.7a20.5 20.5 0 0 1-7.8-8.7zm6.7-3c2.5 1.4 4.9 4 6.2 6.5-2.8-.7-5.6-3.7-6.2-6.5zm3.2-1.4c1.6.7 2.9 2 4 3.2.4.5 2.6 2.5 2.2 3.2-.1.1-.2-.2-.3-.1h.1c-2.7-1.2-5-3.4-6-6.3zm12-11.1c3 2 5.3 5.1 6.8 8.3-.6-.8-1.2-1.5-1.9-2.3l1.4 1.4c-.4.5-2.5-1.9-2.7-2.2-1.4-1.5-2.8-3.2-3.6-5.2zm4.1-.7c1.3.6 2.3 1.7 3.2 2.7.2.3 1.7 1.9.8 2.1.1-.3-.1-.5.4-.2.2.1.3.5.4.7-1.9-1.2-4-2.9-4.8-5.3z"/>
</svg>
