<svg width="205" height="52" viewBox="0 0 205 52" xmlns="http://www.w3.org/2000/svg">
    <path fill="#b9daf7" d="M3 23.8c1.6-2.5 4-3.8 7.1-3.8 2.9 0 5.2 1.1 7 3.2 1.8 2.1 2.7 4.8 2.7 7.9s-.9 5.8-2.7 7.9c-1.8 2.2-4.2 3.2-7.2 3.2S4.6 40.9 3 38.4v12.1H0V20.3h3v3.5zm6.8-.9a6 6 0 0 0-5.1 2.4c-1.2 1.5-1.8 3.5-1.8 5.8s.6 4.3 1.8 5.8c1.3 1.6 3 2.4 5.1 2.4s3.9-.8 5.2-2.4c1.3-1.5 1.9-3.5 1.9-5.8s-.6-4.3-1.9-5.8a6.59 6.59 0 0 0-5.2-2.4zm21.8 15.8c2.7 0 4.6-1.2 5.8-3.5h3.3c-.7 1.9-1.8 3.4-3.3 4.6-1.5 1.2-3.4 1.8-5.8 1.8-3 0-5.5-1-7.3-3.1-1.8-2-2.8-4.6-2.8-7.6 0-3.1.9-5.6 2.6-7.6 1.9-2.1 4.3-3.1 7.3-3.1s5.4 1 7.3 3.1c1.8 2 2.6 4.6 2.6 7.6v1.3H24.6c.2 1.9.9 3.5 2.2 4.8 1.3 1 2.9 1.7 4.8 1.7zm-.2-15.9c-1.8 0-3.4.6-4.6 1.8a7.41 7.41 0 0 0-2.2 4.5h13.6a8 8 0 0 0-2.2-4.5 6.34 6.34 0 0 0-4.6-1.8zM52.9 20v3.2h-.3c-2 0-3.7.9-5 2.8-1.2 1.8-1.8 3.8-1.8 6.3v9.3H43V20.3h2.8v5.2c.6-2.2 1.9-3.8 3.9-4.9.8-.5 1.8-.7 3-.7h.2v.1zm11 8.3l8.2 13.2h-3.5L62 30.6l-3.6 4.1v6.9h-2.8V11h2.8v19.5l9.1-10.8h4l-7.6 8.6zm13.7-15.5v4.1h-3.3v-4.1h3.3zm-3.2 7.6h3.1v21.1h-3.1V20.4zm11.3-.1v3.3c.8-1 1.7-1.9 2.7-2.6a6.7 6.7 0 0 1 3.7-1.1c1.4 0 2.6.2 3.5.6 1 .4 1.9 1 2.6 1.8 1.7 1.7 2.6 4 2.6 6.8v12.3h-3.1V29.2c0-1.9-.5-3.5-1.6-4.7s-2.5-1.7-4.2-1.7-3.2.6-4.4 1.8a6.4 6.4 0 0 0-1.8 4.7v12.2h-3.1V20.3h3.1zm29.6 5.6c-.3-2.2-1.9-3.3-4.9-3.3s-4.5 1-4.5 3c0 .8.3 1.5 1 1.9a9 9 0 0 0 2.4 1.1c1 .3 2 .5 3.2.8 1.1.2 2.2.6 3.2 1s1.8 1 2.4 1.8 1 1.8 1 3.1c0 2-.7 3.6-2.2 4.7-1.4 1.1-3.4 1.6-5.8 1.6-2.6 0-4.7-.7-6.2-2.1a6.5 6.5 0 0 1-2.3-4.8h3.1c.2 1.9 1.2 3.2 3.1 3.9.7.2 1.4.3 2 .3s1.3 0 1.9-.1 1.1-.2 1.7-.5c1.3-.5 1.9-1.4 1.9-2.7 0-.9-.3-1.5-1-2-.6-.5-1.4-.8-2.4-1.1s-2.1-.6-3.2-.8-2.1-.5-3.2-1c-.9-.4-1.7-1-2.4-1.7-.6-.7-1-1.7-1-3 0-1.9.6-3.4 1.9-4.4s3.2-1.6 5.7-1.6c2.4 0 4.3.6 5.7 1.8 1.2 1 1.8 2.4 2 4.1h-3.1zM132 15c.8-.7 1.7-1.2 2.8-1.6a13.24 13.24 0 0 1 7.5-.1c1 .3 1.9.8 2.6 1.4 1.3 1 2.1 2.3 2.4 4h-3.2c-.2-.7-.8-1.3-1.7-2-.9-.7-2-1-3.3-1s-2.3.1-3.1.4c-.7.3-1.4.6-1.8 1.1-.9.8-1.4 2-1.4 3.4 0 1.5.5 2.7 1.6 3.6 1 .7 2.2 1.1 3.7 1.1h6.6v-1.9h2.9v1.9h2.7v2.8h-2.7v5.4c0 2.4-.8 4.4-2.5 5.8-1.7 1.5-3.9 2.3-6.8 2.3-2.6 0-4.8-.8-6.7-2.3a7.54 7.54 0 0 1-2.8-6.1c0-1.5.4-2.9 1.3-4.1.9-1.2 2.1-2.1 3.7-2.7-1-.3-1.9-1-2.7-2.1a6.3 6.3 0 0 1-1.4-3.6c0-1.2.2-2.2.6-3.2.3-1 .9-1.8 1.7-2.5zm5.7 13c-1.7 0-3.1.5-4.2 1.6-1.1 1-1.6 2.2-1.6 3.6 0 1.5.6 2.7 1.8 3.8s2.8 1.7 4.6 1.7c2 0 3.6-.5 4.8-1.6 1.1-.9 1.6-2.1 1.6-3.5V28h-7zm31.6 10.7a6.06 6.06 0 0 0 5.7-4h3.3c-.6 2.1-1.8 3.7-3.5 5-1.8 1.3-3.8 1.9-6.2 1.9-3 0-5.5-1-7.4-3.1-1.8-2-2.8-4.6-2.8-7.6s.9-5.6 2.8-7.6c1.9-2.1 4.3-3.1 7.4-3.1 2.4 0 4.5.6 6.2 1.9 1.6 1.2 2.8 2.9 3.5 5H175c-.5-1.2-1.2-2.2-2.2-2.9-1-.8-2.2-1.1-3.5-1.1s-2.4.2-3.3.6c-.9.4-1.7 1-2.3 1.7-1.3 1.5-2 3.4-2 5.6s.7 4.1 2 5.6a7.7 7.7 0 0 0 5.6 2.1zM189.9 20c3 0 5.4 1 7.3 3.1 1.8 2 2.6 4.6 2.6 7.6 0 3.1-.9 5.6-2.6 7.6-1.9 2.1-4.3 3.1-7.3 3.1s-5.4-1-7.3-3.1c-1.8-2-2.6-4.6-2.6-7.6 0-3.1.9-5.6 2.6-7.6 1.9-2.1 4.3-3.1 7.3-3.1zm0 18.7c2.2 0 3.9-.8 5.1-2.3 1.2-1.5 1.8-3.3 1.8-5.6s-.6-4.1-1.8-5.6c-1.3-1.6-3-2.3-5.1-2.3-2.2 0-3.9.8-5.1 2.3a8.55 8.55 0 0 0-1.8 5.6c0 2.3.6 4.1 1.8 5.6a6.2 6.2 0 0 0 5.1 2.3zm14.8-.8v3.6h-3.3v-3.6h3.3z"/>
</svg>
