<svg width="450" height="500" viewBox="0 0 450 500" xmlns="http://www.w3.org/2000/svg">
    <path class="uk-svg-default-background" fill="#fff" d="M406.8 386c-.4-16.9-.4-28.8-2.8-45.3-.5-3.7-7.2-17.8-11.3-24-9-10-16.2-23.6-21.8-34.2-11-23.2-44.6-101.2-52.5-115.7-8.4-19.1-30-67.2-31.8-71.5-9.8 16.1-45.8 81.7-52.9 94.8-16.8 30.8-63.2 117.4-71.9 134.4-.4 0-3.8 7.6-7 10.9-6.5-12.5-12.1-26.8-19.1-39.1 0-.1-.1-.1-.1-.2-5.9-12.1-30.8-64.5-36.3-77.6-4.3-11.3-6.8-11.2-10.1-6.8C85 222 62.5 261.2 62 262.2c-19.1 36-37.6 72.2-55.7 108.7-.6 1.2 10.7 11.9 12.2 10.4.5.7 13.8 27.6 21.9 39.3 2.2 3.2 2.3 2.8 4.4-.4 5.2-7.8 14.3-15.4 18.9-23.5 17.3 24 28.3 46.9 50 72.9 2.1 3.5 3 4.3 3.9 0 3.6-17.2 11.6-34.2 16.2-51.2 20.2 27.5 44.3 48.9 79.1 56.1 2.9-1.3 4.1-5.5 3.6-6.7-3.2-8.3-6.5-16.7-9.9-24.9 1.3.2 2.8-.2 4-1.4 11.8-11.8 21.2-25.6 28-40.7 1.5 2.6 3.9 5.7 5.9 8.2 3.6 4.4 3.1 5.2 5.1 1.4 9.8-19.3 21-38.6 30.9-57.9 13.2 12.4 26.5 24.7 39.7 37.1 1.9 1.8 1.9 1.4 3.8-.7 6.7-7.6 10.3-16.1 15.2-24.6 5.1-8.9 8.5-11.2 16.1-18.7 5.7 3.5 9.8 7.5 14 10.5 4.6 3.2 8.8 7.7 13 11.4 8.5 7.5 10.4 10.9 18.7 18.6 5.6 5.1 6 5.7 5.8-.1z"/>
    <path class="uk-text-primary" fill="#02a9e6" opacity=".25" d="M448 424.8c-5.9-8.8-3.4-9.7-7.3-19.5-4.1-10.2-8.3-20.4-12.7-30.5-9-21-18.5-41.8-27.9-62.6 0-.1-.1-.1-.1-.2-.1-.4-.3-.8-.6-1.1-24.7-33-38.4-72-55.4-109.2 1.1-1.1 1.5-2.8.4-4.5-19.9-30.8-32.9-66-47-99.8 0-.2-2.5-14.3-1.4-20.5 1.4-8.2 12.7-1.4 17.2.3 11 4.2 23.9 5.8 33.2-3.1.8-.8 1.1-1.6 1.2-2.5.2-.4.3-.9.3-1.5.5-13.9-1.1-27.7-4.8-41.1-.9-3.1-5.8-4.1-7.3-1-2.2 4.5-6.7 7.6-11.9 6.8-4.9-.8-8.7-5.1-12.9-7.4-4.5-2.5-9.2-3.2-14.3-2.8-4.7.4-11.5.1-15.7 2.2-3.9 2-3.8 6.1-3.5 9.9.5 6.5.8 13 .9 19.6.2 13.1-1 39.8-1 40A3230.4 3230.4 0 0 0 155.9 321c-9.3-20.5-18.6-41.1-27.8-61.6-9.1-20.2-16.8-43.8-33-59.7a4.1 4.1 0 0 0-6.3.8C55.5 254.1 27.2 307.6 1.4 365c-2.1 4.7 2.4 10.9 4.8 6.3 29.1-55 81.5-162.7 86.7-162 3.1-.3 9 15.6 12.8 23.7 5.2 11.1 10.7 22.3 15.7 33.5 10.4 23 22.1 44.5 32.5 67.5 1.5 3.2 5.1-4.3 5.1-4.4 33.3-61.6 64.7-123.7 99.3-184.3 9.6-17.8 27.1-49.6 28.4-49.8.4-.1 4.3 9.5 9.8 21.8 11.4 25.3 24.8 55.6 28.8 64.2 2.1 4.5 15.5 34.7 29.6 65.9 13.3 29.3 27.2 59.6 37.1 68 2.5 4.5 20 42.3 29 63.3 8.4 19.6 14.1 31.7 23.3 52.4 3 4.4 6.6-2 3.7-6.3zM287.4 71.5s.1 20.8.2 25.3c-.5-1-.7-2.1-1.9-.3-.2-9.9-.1-27.9-.1-37.8 0-6.5.5-12.8 0-19.4-.1-1.1-.8-6.5.5-6.5 1.3-.2 1.1 2.2 1.1 2 2.6-.9 5.5-1.8 8.2-2.1 6.3-.7 10 .7 15.2 4.3 3.6 2.5 11.2 6.1 15.7 5.8 5.9-.4 9.7-2.4 12.5-5.5 1.3 11.7 2.6 19.6 2.3 29.8-4.7 4-11.9 6-18.8 4.6-8.3-2.8-15.5-6.9-20.4-7.7-6.8-1.1-12.9 5.4-14.5 7.5z"/>
    <path fill="#333" opacity=".04" d="M215.7 466.7c1 4.9-1.4 2.8-2.9 2.3-.3.2-64.8-59.4-65.3-61.1-9.8-33.7-17.3-42.5-30.4-75.1-.3-.7-.2-1.3 0-1.7-.1-.2-.2-.3-.2-.5-1.5-2.9 2.8-5.4 4.3-2.5 1.3 2.5 2.6 5 4 7.5 1.2 1.6 2.4 3.3 3.6 4.9 0-.3.1-.6.1-.9 0-.2.1-.5.2-.7-2.6-5.2-4.6-10.7-6.2-16.4-14.7-34.2-32.4-108.5-32-109-.9-2.8 1.8-6.6 4.4-2.2 4.4 9.7 43.5 90 60.2 124.5 2.4-5 4.9-10 7.3-15 .4-.8 1-1.2 1.7-1.2 0-.2 0-.3.1-.5.4-2.6 4.1-2.2 4.8 0 14.5 45.8 28.9 91.6 43.4 137.3.2.5.2.9.1 1.3 0 .1.1.1.1.2.9 2.1 1.9 4.2 2.8 6.4.4.9.3 1.7-.1 2.4zm176.6-150.9c-13.8-10.7-36.8-67.3-41.5-77.7-.5-1-25.3-56.9-25.7-57.1-.9-2-8.2-17.2-11.6-23.3-7.4-17.5-26.2-60.1-26.7-62.1-1 1.2-1.5 2.3-2.7 4 .1.6 0 8 .2 9.9-1.3.2-2.5 1.4-2 3 9.4 36.1 18.9 72.2 28.3 108.3l.9 7.3c-6.2-1.3-12.3-4.2-14.7-2.8-1.3 13.5-5.1 71.8-5.1 72.5v-.1c.1-1.4 11-22 14.9-31.2 1.2-6.2 5.2-11 7.7-18.9 3.8-2.5 9.2-6.5 10.6-6.9 1.7 2.9 4.4 6.5 7 9.8 1.1 2.3 29.3 47.2 48.1 71.4.9 1.6 14.4 9.6 22.2 16.1.4-5.5-9.3-20.8-9.9-22.2zM258.1 215.6c-3.2 6.6-11.9 24.1-13 25.4 3.5-2.1 7.5-4 7.8-4.4 2.7-3.1 4.6-3.8 7-7.2 2.3-3.3-.5-9-1.8-13.8z"/>
    <path fill="#333" opacity=".2" d="M341.3 66.4c-5.7 7.9-20.6 6.5-26.2 2.4-6.6-3.1-9.2-4.8-16.8-4.8-5.5 1-9.7 5.7-10.8 7.9.1 12.3.2 22.8.1 24.9l-1-1.2c-.5.1-1.2 2.2-1.2 1.5.2-20.2 0-43.2-.2-63.3 0-1.3 1.9-1 1.9.3v1c6.5-2.9 13.5-3.1 19.5-.6 6.6 2.7 8.4 8.1 21.3 8.4 3-.5 8.5-2.2 10.6-5.6.4 1.2 2.8 21.6 2.8 29.1z"/>
    <path fill="#333" opacity=".9" d="M213.3 458.5c-4.3-10.1-8.6-20.3-13.1-30.3-7.6-16.9-15.5-33.6-23.5-50.3-5.8-12.1-11.6-24.2-17.5-36.2-11.2-23-22.7-46-34-69-6-12.2-11.9-24.5-17.8-36.8-1.6-3.3-7.1-15.9-8.4-18.8-1.1-2.4-2.1-5.5-4-7.4-3.6-3.6-7.2 4.4-8.6 6.9-1.3 2.3-24.2 43.7-33.9 62.5-6.1 11.7-35 68.8-43.3 85.6-.4.8-4.1 8.5-4.1 8.5.4.2 3.9-6.9 4.3-7.8 3-5.7 15.1-28.4 18-34.1 1.5-2.9 2.9-5.8 4.5-8.6.7-1.2 5.2-5.4 6.4-6.5 4.4-4 8.9-8 12.8-12.4 1 15.6-.8 31.3-1.7 46.9-.3 5.6-.7 11.2-.8 16.9 0 1-.5 5.5.9 5.8 1.2.3 1.8-2.2 2.2-3 1.8-4.1 4.3-8 6.6-11.8 3.2-5.4 6.6-10.8 10-16.1 2.2-3.4 10.4-16 12.6-18.6 6 9.2 12.4 18.2 19.2 26.8 3.6-6.3 7.6-12.2 12.3-17.8 1.2-1.4 2.4-2.8 3.8-4.1 1.1-1.1 2-2.4 3.3-1 2.7 2.8 19.8 29.5 26 39.5 2.9 4.6 5.6 9.3 9 13.5 2.1-4.6 2.7-9.4 2.9-14.4.3-5.6.3-11.5 3.3-16.4 5.7 11.7 11.4 23.4 17.2 35.1 9.9 20.3 19.7 40.7 29.2 61.2a1242 1242 0 0 1 7.9 17.3c.2.4.7 2.1 1 1.9-.9-2.4-1.7-4.7-2.7-7zm-55.5-101.9c-1.6 7.1-.6 14.7-3.5 21.5-4.7-6.6-8.5-13.9-12.6-20.8-4-6.7-8.1-13.4-12.4-19.9-2.2-3.3-4.4-6.5-6.8-9.6-.9-1.1-1.8-2.4-3.1-2.9-1.8-.6-3 .8-4.1 1.9-6 5.9-11 13.2-15.2 20.5-5.3-6.6-10.4-13.4-15.3-20.3-.6-.9-2.6-4.1-3.1-4.5-.4-.3-.5-.3-1 .1s-.8 1-1.2 1.6c-1.1 1.8-2.4 3.5-3.5 5.3-6.6 10.5-13.4 20.8-19.7 31.5-1.2 2.1-4.4 7.5-4.7 8.1-.5.9-.8 2.2-1.5 3-.5-3.2.1-6.9.3-10.1.3-3.4.5-6.8.8-10.3.2-2.3.3-4.7.5-7 .5-7.9 1.1-15.9 1.4-23.8.2-6.8.1-13.6-.6-20.4-5.9 7.3-13.1 13.4-19.3 20.4 4.3-8.4 8.7-16.7 13-25.1 10.6-20.5 21-41.2 31.9-61.7 3-5.7 6-11.3 9.2-17 1.3-2.3 2.6-5.4 4.7-7.1 2.6-2.1 4.3 2.1 5.1 3.9 3.8 8.2 7.2 16.5 11 24.7 6.2 13.6 12.5 27.1 18.9 40.7 5.5 11.7 11.1 23.3 16.7 35 2.8 5.8 5.6 11.6 8.5 17.4 1.4 2.8 2.7 5.6 4.1 8.5.7 1.4 3.9 8.1 4.5 9.4-.1.3-1.2 2.4-1.5 2.9-.8 1.3-1.2 2.7-1.5 4.1zm250-9.2c-2.1-4.7-9.5-21.3-11.1-24.8-1.1-2.3-2-4.9-3.4-7-.8-1.3-2.1-2.4-3.1-3.5-1.9-2.2-3.6-4.6-5.3-7-3.4-4.9-6.7-10-9.4-15.3-2.3-4.5-4.3-9.2-6.4-13.8-2.4-5.3-50.5-110.9-54-118.6-4.6-10-9.1-20-13.7-30-2.6-5.8-5.3-11.6-7.9-17.3-1.3-2.9-5.3-11.5-5.7-12.8-.5-1.5-.2-3.3-.1-4.9.3-6.6.3-13 .3-19.4 0-.4-.1-1.3 0-1.7.2-.5.9-1.2 1.3-1.5.9-1 2-1.8 3.1-2.5 2.3-1.5 5-2.6 7.8-2.7 5.9-.1 11.5 3.8 16.6 6.3 5.2 2.6 11.1 2.8 16.7 1.4 2.5-.7 5.4-1.8 7.3-3.7 1.3-1.4 1.4-2.9 1.3-4.7-.3-3.8-.5-7.5-1-11.3-.7-5.5-1.6-10.9-2.1-16.4-6.1 8-16.8 6.5-24.4 1.7-3.9-2.4-7.7-5.1-12.4-6-5.1-1-10.2.5-14.8 2.6 0-.9 0-2.4-1.4-2.2-1.3.2-.9 1.9-.9 2.8 0 1.2.1 2.3.1 3.5.1 5.3.1 10.5.1 15.8 0 13.2.1 26.5.3 39.7 0 .6.2 1.7 0 2.2-.2.5-.8 1.1-1.1 1.6-.9 1.4-3.5 5.9-3.9 6.7-1.6 2.8-3.2 5.5-4.7 8.3-6.5 11.3-12.8 22.8-19.2 34.2-12.9 22.9-25.7 45.9-38.2 69C211 230 203.7 244 196.3 258c-11.8 22.2-23.1 44.6-34.9 66.8l-4.5 8.4c.5.2 12.3-21.4 14.8-25.9 5-9.1 9.9-18.4 14.9-27.6 2.4-4.5 5.9-8.4 8.9-12.5 3.1-4.1 6.1-8.3 9.1-12.4 6.1-8.4 12.1-16.9 18-25.5 6.5-9.5 13-19.1 19.3-28.8 1 11.9 2.2 23.7 3.3 35.6.1 1.4.3 2.8.4 4.2 3.4-3.8 5.2-8.4 7.4-12.9 1.7-3.7 3.5-7.4 5.3-11 4.7 18 10.3 35.8 15.9 53.6 2.8 8.9 5.7 17.7 8.5 26.6 2.8 9.2 5.5 18.4 8.4 27.6l2.1-29.2c1.5-20.5 4.7-66.5 4.7-67.1.1-1.1-.3-2.1 1-2.1 1.4-.1 3 .4 4.4.7 1.7.4 10.9 3 13.9 3.7.6-8.1 2.2-15.9 3.9-23.8 1.7-8.1 4.1-16.7 3.7-25.1 8 18.1 16.1 36.2 24.2 54.3 5.6 12.4 11.1 24.8 16.8 37.2 4.2 9.3 8.2 18.6 13.8 27.2 2.5 3.9 5.1 7.8 8 11.5 1.8 2.3 4.1 4.3 5.4 6.9 1.7 3.6 11.2 24.2 14.2 30.9 3.3 7.3 31.8 69.8 34.2 75 1.1 2.3 2.1 4.5 3.2 6.8.2.4 1.2 2.7.8 1.2-.3-1.2-1.1-2.4-1.6-3.6-2.2-4.4-34-76.9-36-81.3zM300.7 33.2c7.1 1.3 12 7.2 18.8 9.2 6.6 1.9 14.3 1 18.9-4.5.8 6.8 1.7 13.6 1.7 20.5 0 1.4.1 2.8.1 4.1 0 1.3.4 3-.3 4.2-1.4 2.2-5 3.2-7.3 3.7-3.1.7-6.4.8-9.6.4-3.1-.5-5.8-1.9-8.6-3.3-2.9-1.4-5.9-2.8-9-3.7-6.6-1.8-14 1.1-17.5 7.1-.1-11.5-.7-35.5-.6-35.8.2-.5 1-.5 1.5-.7 1.3-.4 2.6-.7 3.9-1 2.7-.5 5.4-.7 8-.2zm-15 0c.1-.3.6-.3.9-.2.4.3.3 1 .3 1.4 0 .7.1 4.1.1 5.2.1 3.9.2 7.8.1 11.7 0 9.5-.1 18.9 0 28.4.1 5.5 0 11 .4 16.4-.2-.4-.4-.9-.6-1.3-.5.4-.9.8-1.2 1.3.4-9.6.6-19.1.6-28.7 0-9.1.1-18.3-.4-27.4 0-1-.6-5.8-.2-6.8zm38.4 149.4c-.3 7.8-2.4 15.3-4.1 22.9-1.8 7.6-3.7 15.1-4.4 22.9-3.5-.9-13.2-3.7-14.7-3.9-1.3-.2-3-.7-4.2.2-1.2 1-.9 3.4-1.1 4.9-.1 1.4-2 24-2.7 34l-2.4 37.6c-.3 4.4-.6 8.7-.8 13.1a1436 1436 0 0 0-13.1-40c-4.5-13.1-8.9-26.1-12.8-39.4-2-6.7-3.8-13.5-5.5-20.3-1.9 3.8-3.7 7.6-5.6 11.4-1.9 4-3.6 8.4-6.4 11.8l-2.1-28.7c-.4-4.5-.7-9.1-1.1-13.6-9.5 14.2-18.9 28.6-28.5 42.7-6.6 9.7-13.3 19.4-20.1 29.1-2 2.9-4.1 5.8-6.1 8.7 5.1-9.6 10.2-19.1 15.4-28.6 5.8-10.9 11.7-21.8 17.5-32.6 4.1-7.6 8.2-15.2 12.3-22.7 6.4-11.8 12.8-23.7 19.2-35.5 9.7-18 19.6-35.9 29.7-53.7 1.4-2.4 2.7-4.8 4.4-7 6 14.1 12.4 28.2 18.6 42.2 4.4 10 8.9 20.1 13.3 30.1 1.3 3 4.7 10.6 5.1 11.5.3 1.1.2 1.8.2 2.9z"/>
</svg>
