<svg width="100" height="100" viewBox="0 0 100 100" xmlns="http://www.w3.org/2000/svg">
    <path class="uk-text-primary" fill="#02a9e6" opacity=".25" d="M88.7 70.5c-.6-.6-1.4-1-2.1-1.4 9-5 13.6-16.4 9.1-26.5-5.2-11.5-18.8-17.3-31-18.6-.2-.1-.3-.3-.5-.4C48 14.3 25.1 8 9.8 22.9-1.6 34.1-.8 54.6 14.1 61.4a9.6 9.6 0 0 1-4.2 4.5c-3.1 1.8-2.2 6.2 1 7.3 5.4 1.9 11.1 1.2 16.1-1.5 2.3-1.2 4.4-2.8 6.3-4.6.1-.1.8-.7 1.5-1.4.1.1.2.3.3.5 5.7 7.3 14.4 10.7 23.3 10.2 2.2 3.1 5.4 5.3 9 6.6 4.9 1.7 12.2 2.9 17.3 1.6 4.1-1 7.4-4.6 6.8-9-.2-2-1.3-3.7-2.8-5.1zm-5.6 6c-7.7 1.7-14.6-1.6-19.5-7.7-4.7.4-14.1-.4-18-2.9-3.5-2.2-6.7-5-9.2-9.4-1.1.7-2.9.7-4.7.9-1.8 5.4-10.7 9.9-15.1 9.2 2.1-2.2 8.1-9.3 6.5-9.6-8-1.5-17-9.3-17-15.6 0-6.6 5.7-13.2 12.3-16.1 12-5.2 34.8-2.3 39.9 6.3 9.3.1 21.8 3.3 27.9 10.8 6.9 8.4 4 15.8-8.6 22-2.5 1.2-3.5 2.2-2.6 4.3.9 1.9 4.4 5.5 8.1 7.8z"/>
    <path fill="#333" opacity=".04" d="M84.1 76.8c-4.8.5-9.2-.1-12.8-1.9-2.8-1.3-4.9-3.3-7.7-6.2-17.4.9-23-5.9-26.9-12.5-.9 1.3-4.8 1-4.9 1-4 8.6-15.3 9.9-14.7 8.9 4.8-4.2 5.3-7.5 6.1-10.5-.7-2.8-.7-5.5-.2-8.2-.3-.2-.5-.6-.5-1.1.1-6.8 4.3-12.5 9.8-16.6.5-.5 1.1-.9 1.7-1.3 2.9-2.8 6.5-4.7 11-4.4 6.6.8 11.9 4.9 13.4 7.6-12 .4-18.7 7.4-21.1 10.7 1.5-2.1 8.2-5.9 9.2-6.4 1.7-.9 3.2 1.7 1.5 2.6-.1 0-.1.1-.2.1 0 .5-.2.9-.7 1.2-.9.5-1.7 1-2.4 1.6.1.4 0 1.2-.6 1.5.1.2.2.5.2.8-.4 4.8 0 10.1 2.3 14.5 2.9 3.7 7.7 5.9 13.3 5.4.5 0 .9.1 1.1.4 1.9-.2 3.7-.4 5.6-.7.9-.1 1.9.4 1.9 1.3 1.7 3.6 4.2 6.5 7.5 8.4 2.2.6 3.5 2.5 6 2.3.2.7.8 1.1 2.1 1.5zm2.3-34.4c-.2-.4-4.5-3.6-5.9-4.2-1.7-.8-3.3 1.8-1.5 2.6 1.8.8 3.3 1.9 4.5 3.3 2.6 6.7-2.1 12.8-8 16.1-.6.3-.8.9-.7 1.5-1.2.9-.1 3.7 1.6 3.2 1-.3 12.2-4.7 13.2-11.3.5-4-1-8.3-3.2-11.2zM77.9 36c-1.9 0-1.8 2.3.1 2.3 1.9 0 1.8-2.3-.1-2.3z"/>
    <path fill="#333" opacity=".2" d="M45.4 35.4c-8.5 3.4-12.4 12.3-9 21.2-.1.3-2 1-4.4.7-1.1.1-2 .5-2.1 0-1.7-6.9.1-13.7 5-18.9.5-.5 1-.5 1.5-.3 2.1-2.1 4.5-3.9 7.4-5.2 1.8-.9 3.3 1.5 1.6 2.5zm9.5 14c-.5-.7-1.3-1-2.1-.5-.3.2-1 2.2-.6 2.7.1.3.2.5.4.8.5.7 1.5.5 2.1 0 .2-.1.3-.3.4-.5.3-.6 0-2.2-.2-2.5zm5-.1c-.9.5-1.3 1.5-.9 2.5.4 1.1 1.5 1.6 2.5 1.3.5-.2.7-.4 1.2-1 .3-.2.6-.5.7-.9.4-1.7-1.8-3-3.5-1.9zm10.3-.4c-.7-.4-2.7.7-2.6 1.8.2 1.3 1.8 1.8 2.5 1.7.8-.1 1.6-.7 1.7-1.6 0-.9-.7-1.8-1.6-1.9zm7.9 27.3c-4.1-1.1-6.5-3-9.7-5.7-1.8-1.5-3.1-2.2-5.4-2.6-7.7-1.4-14-2.3-20.9-6.4-1.7-1-2.1.9-.5 1.9 5.5 5 14.2 5.7 21.9 5.5 3.9 3.9 5.6 6.3 14.3 8.1 2 .5 2.2-.3.3-.8z"/>
    <path fill="#333" opacity=".9" d="M90.5 49.1c-1.7-9.6-11.6-14.4-20.2-16.3-10.5-2.4-23.4-1.7-31.5 6.3-4.8 4.6-5.8 11.7-3.1 17.7-1.4.3-3.2-.5-4.4.5-.6.5-.9 1.3-1.3 1.9-.5.7-1.1 1.4-1.7 2-2.5 2.4-5.7 3.8-9.1 4.3 1.6-1.2 3-2.9 4-4.7.5-.9.9-1.8 1.1-2.8.1-.4-.3-2.1-.1-2.3 0 0-1.8-.4-2.1-.5-1.6-.2-3.2-.9-4.6-1.6-2.8-1.3-5.4-3.2-7.5-5.5-2-2.2-3.5-5-3.2-8.1.2-3 1.7-5.9 3.6-8.2 7.6-9.4 21.4-9.4 32.3-7.7 3.6.6 7.6 1.3 10.7 3.3.9.6 1.7 1.4 2.5 2.1.6.5 1.6 1.8 2.5 1.8-2.9-4.9-8.3-7.3-13.6-8.5-6.1-1.4-12.7-1.8-18.8-.6-6.3 1.2-12.1 4.3-16.3 9.2C5.8 36.1 4 42 7.2 47.3c3 5.1 9 8.9 14.7 10.1-.5 2.4-2 4.3-3.8 6-.8.8-4.8 3.5-2.1 4.2 2.3.6 5.4-.5 7.4-1.4 2-.9 4.2-2.1 5.5-3.9.9-1.3 1.6-2.7 2.5-4 .5-.7.6-.7 1.4-.8.5-.1 1.1-.1 1.7-.2.4-.1 1-.4 1.4-.2.4.2.5 1 .7 1.4.4.6.8 1.2 1.2 1.7.9 1.1 1.9 2.1 2.9 3 2.2 1.8 4.7 3.2 7.4 4.2 2.7.9 5.6 1.4 8.5 1.5 1.4.1 2.7.1 4.1 0 1-.1 2.1-.4 3 .2.9.6 1.6 1.7 2.4 2.5.9.9 1.9 1.7 3 2.4 2.1 1.4 4.5 2.5 7 3 2.4.5 5.1.9 7.6.7.7-.1 2.1-.3 1.8-1.3-.2-.7-1.3-.8-1.9-1-1.2-.4-2.3-1.2-3.3-2-1.2-1-2.4-2.1-3.3-3.3-.5-.7-1.7-2.2-1.5-3.1.3-1 1.9-1.5 2.6-1.8 1.4-.5 2.7-1.2 3.9-1.9 5.2-2.9 9.6-8.1 8.5-14.2zm-3.7 7.4c-1.9 2.6-4.7 4.6-7.7 5.9-2.1.9-5.6 1.8-5.9 4.5-.2 2.2 1.7 4.2 3.2 5.6 1.6 1.5 3.3 2.9 5.3 3.9-4.5.3-9.6-.5-13.4-3.3-1.6-1.2-2.7-3-4.4-3.9-1.9-1.1-4.8-.7-6.9-.8-5-.4-9.6-1.6-13.6-4.7-3.7-2.9-6.5-7-7.3-11.7-.7-4.5.6-9 3.9-12.3 3.2-3.2 7.7-5.5 12-6.7 8.7-2.4 18.9-.4 26.5 4.3 6.3 3.9 14.3 11.8 8.3 19.2zm-31.2-5.1c-.8 1.1-3.1 1.3-3.8-.1-.6-1.3.8-3.2 2.3-2.8-.8.9-1.6 1.7-1.7 3 .7 0 2.1.1 2.3-.7.3-.8-.7-1.1-.9-1.8 1.1.6 2.9.8 1.8 2.4zm7.7 0c-.7.7-2.4 1.2-3.3.7-.8-.4-1-2.5.2-2.2-1.1 1.8 2.9 2.6 2.8.7-.1-1.2-2.4-.8-3.2-.7 1.1-2.8 5.3-.4 3.5 1.5zm7.6-2c-.6-.5-1.6-.7-2.3-.3.2-.5-.9.4-1 .6-.6.9-.2 2 .8 2.4 1.5.8 4.1-1.1 2.5-2.7zm-1.1 2.3c-1.2 1.1-2.3-1.2-1.6-1.9 1.1-.9 2.8.8 1.6 1.9z"/>
</svg>
