<svg width="100" height="100" viewBox="0 0 100 100" xmlns="http://www.w3.org/2000/svg">
    <path class="uk-text-primary" fill="#02a9e6" opacity=".25" d="M90.6 77c-6.3-7-13.5-13.4-20.4-20 5.4-11.7 5-25.6-2.5-36.5a35.07 35.07 0 0 0-34.8-15C18.5 7.8 7.1 19.8 4.5 34c-2.3 12.7 2.9 26.4 13 34.5 10.9 8.8 26.4 9.8 38.7 3.6 3.7 5.9 10.1 10.5 15 15.1 5 4.7 12.2 12.4 19.6 7.4 6.4-4.2 4-12.7-.2-17.6zm-1.9 12.3c-.8 1.1-2 1.3-4.1-.1-7.5-6.8-22.6-21.8-23.7-22.9.3-.4.6-.6.9-.8-1.1-1.1-2.7-2.1-4-3.7-10.2 8.8-29.8 10-39.3.2-9.7-10-11-29.2-1.6-39.6 9.8-10.8 27.2-13 38.7-4 6.5 5 10.3 13.3 10.5 22.5.1 6.2-2 12.3-6.1 18.1 1.4 1.7 2.4 2.5 4 4.1l.9-.9c2.1 2.1 17.7 17.5 19.8 19.6 1.5 1.4 6.1 4.6 4 7.5z"/>
    <path fill="#333" opacity=".04" d="M88.7 86.5c-.2 0-.4.2-.5.3-.2-.1-17.8-16.2-23.8-22.8-.2-.2-.6-1.2-.8-1.4-.9-1-3.2-3.3-3.5-3.5.1-.1.1-.2.2-.3 1.7-2.4 4.4-9.1 4.5-9.5 2.7-7.1.9-15.8-1.3-20.7-2.2-4.9-6.5-9.8-10.3-11.9s-15.5-4.4-20.5-3.2c-5 1.2-11.8 4.8-13.9 7.2s-7.3 7.9-8.1 17.4c-.5 6.3.9 13.7 3.6 17.8 2.6 4.1 7.1 8.9 13.2 11.9s19.2 1.5 24.9-2c.1-.1 5.3-3.9 5.4-3.9 1.1 1 3 2.6 4.1 3.6-.2.2-.8.7-.9.9 6 6.2 22.5 22.1 23.3 22.7 1.4 1.1 3.9 1.6 5-.2 0-.2-.3-2.5-.6-2.4zM41.2 64.9c-9.8.3-22.6-4.3-26-14.3-1.3-3.7-1.6-7.9-1.4-11.9-.1-1.2 0-2.5.4-3.6v-.3c.3-2.1 1-3.9 2-5.4 4.1-9.4 15.7-14 25.9-12.5.2-.2.6-.4 1-.3.1 0 .3 0 .4.1C55.9 18.5 63.7 31 62.2 42.9c-1.3 10.5-9.4 21.7-21 22zM54 31.4c-1.2-1.1-5-3-11.2-3.9-2.4-.4-7.7 0-9.9 0-.6 0-.4-3.1-.2-3.7.4-.8 1.4-3.1 2.5-3.3 1-.1 6.9.6 7.2.7 2.8.5 5.4 1.6 7.8 3.5 2.6 1.9 4.4 2.9 6.3 5.4 1.8 2.3 3.2 6.1 3.2 6.1s-3.3-3.1-5.7-4.8zM32.8 49.7c-1.4 0-5.3-.3-5.3-.8-.2-3.6-.1-12.7-.1-12.9 1.5-.2 4.1 0 5.2-.3.1 4.1 0 11 .2 14zm8-.2c0 .6-5.2-.2-5.2-.6-.2-4.7-.2-13.7-.2-15.2 1.3-.1 4.1.1 5.3-.1-.1 4.1-.1 12.7.1 15.9z"/>
    <path fill="#333" opacity=".16" d="M62.7 65.6c3.5 2.8 6.4 6.3 9.5 9.5 3.2 3.3 11.9 11 12.9 11.8.8.6 2.7 2.5 3.7 2 1-.4.6.6-.4 1-2.3 1-4.2-1.1-5.7-2.4-1.8-1.6-3.6-3.2-5.4-4.9-3.4-3.3-6.7-6.7-9.9-10.2-1.8-1.9-3.7-3.7-5.8-5.4-.2-.1-.6-.4-.6-.6.3-.4 1-1.3 1.7-.8zM12.6 52.3c1.7 4.4 4.3 8.3 8 11.2 3.6 2.7 7.9 4.4 12.3 5.1 4.9.8 9.6.1 14.4-1.2 3.8-1 8-2.5 10.5-5.7 1.1 1.1 2.2 2.2 3.2 3.3.3.3.8.4 1.2.1.3-.3.5-.9.1-1.2-1.3-1.3-2.1-2.2-3.5-3.5-.4-.4-1 .1-1.5.4-3.9 2.8-7.9 4.1-12.3 5-8.8 1.8-17 .8-23.9-5.2C13.6 54 11.5 43.8 11 34.4c.2-.4-1.7 9.3 1.6 17.9z"/>
    <path fill="#333" opacity=".2" d="M25.2 19.4c7.2-3 12.4-4 20.1-2.4 6.1 1.2 9.6 5.1 9.9 5.5.1 0 5.1 5.5 6.7 11.3 1.7 7.9-.7 16.4-.5 15.3 1-5 .3-11.7-.2-13.6-1.3-4.7-4.2-8.5-7.8-11.9-4.8-4.5-11.2-6-17.7-5.7-4.4.2-7.9 1-11.9 2.7-1.2.4.4-.8 1.4-1.2zM49.4 31c-2 0-5 .1-5.7 0-.5.1 0 12.7.1 18.6 1.1.3 4.7.2 5.7.2-.1-3-.3-15.7-.1-18.8z"/>
    <path fill="#333" opacity=".9" d="M89.7 87.2c-.4-2.4-3-4.5-4.6-6.1-2.2-2.3-4.5-4.5-6.7-6.7-4.5-4.4-9-8.6-13.5-12.9-.4.4-.7.8-1.1 1.2-.5-.5-1-1.1-1.4-1.7-.4-.5-1.3-1-1.5-1.5-.5-.8 1.1-2.6 1.5-3.5 1.6-3.2 2.8-6.6 3.5-10 1.2-6.6.2-13.8-2.8-19.8C57.4 14.7 43.5 9.6 31.4 13a29.24 29.24 0 0 0-20.9 22.6c-2 10.4 1.1 22.3 9.7 29 5.8 4.5 13.2 6 20.4 5.3 6.4-.6 13.3-2.6 17.6-7.6 1 1.1 1.9 2.3 3.2 3-.5.5-.7.8-.3 1.4.4.7 1.3 1.3 1.8 1.9 1.4 1.5 2.8 3 4.2 4.4 2.7 2.9 5.5 5.8 8.4 8.6 2.6 2.5 5.3 5.1 8.1 7.3 1.1.9 2.5 1.7 3.9 1.4 1.5-.3 2.5-1.6 2.2-3.1zM56.3 62.1c-4.6 3.8-10.8 5.4-16.7 5.7-6.1.4-12.3-.9-17.4-4.3-8.3-5.7-12-16.5-11-26.4.6-5.9 3-11.6 7.2-15.7 4.1-4.1 9.7-6.6 15.4-7.5 9.9-1.5 21.1 2.3 27 10.6 3.8 5.4 5.8 12.6 5 19.1-.4 3.5-1.6 6.9-3.3 10-1.5 3.2-3.4 6.3-6.2 8.5zm4.6 2.3c-.8-.8-1.7-1.5-2.6-2.1.7-.9 1.4-1.8 2-2.8.8 1.1 1.8 2 2.8 2.8.7.6.4.7-.1 1.3-.4.5-.9 1.1-1.4 1.5l-.7-.7zm27.9 23.9c-.2 1.1-1.4 1.5-2.4 1.4-1.3-.2-2.3-1.3-3.2-2.2-2.3-2.5-4.6-5-7-7.5-4.7-4.9-9.7-9.7-15.3-13.7.6-.2 1.1-.8 1.5-1.2.8-.7 1.5-1.4 2.3-2.1 4.1 4.9 8.5 9.5 13.2 13.9 2.3 2.2 4.6 4.3 7 6.4 1.4 1.2 4.4 2.8 3.9 5zM62.4 37.7c-.6-9-6.6-17.4-15.1-20.6C42 15 36.2 15.3 30.7 17c-4.4 1.4-9.1 3.2-12.1 6.9-6.5 8.1-7 21.1-1.6 29.9 2.6 4.3 6.9 7.8 11.5 9.8 2.7 1.2 5.6 1.5 8.5 1.6 2.9.2 5.9.2 8.8-.6 5.5-1.4 10.5-5.2 13.3-10 2.9-5 3.8-11.1 3.3-16.9zm-.8 9.6C59.2 57 50.4 64 40.5 64.6c-5.3.3-10.9-.3-15.5-3.3-4.2-2.8-7.8-6.6-9.4-11.4-3.1-9.2-1.8-22.4 7-28.2 2.3-1.5 5-2.5 7.6-3.4 2.7-1 5.4-1.6 8.3-1.7 5.2-.2 10.4 1.4 14.6 4.5C61 27 64 37.8 61.6 47.3zm-12 2.2c.2-3.2.3-6.4.2-9.7-.1-3.1-.4-6.2-.3-9.2-1 .1-2.1.2-3.1.1-.7-.1-1.4-.3-2.1-.2-.9.1-.9.3-1 1-.1 1.1-.1 2.3-.1 3.4-.1 4.8 0 9.6.6 14.4-7.1-.1-14.2-.2-21.3.4 10.5.9 21.1.9 31.6 0-1.5 0-3-.1-4.5-.2zm-3.5-.1c-.7 0-1.4 0-2.1-.1.2-4.3.2-8.5.2-12.8 0-1-.1-1.9-.1-2.9 0-.4-.2-1.9.1-2.2.3-.3 1.4-.1 1.8-.2 1.1-.1 2.1-.1 3.2-.3.1 3.1-.3 6.3-.3 9.4 0 3.1.1 6.1.5 9.1-1.1.1-2.2 0-3.3 0zm-5-8c0 2.6 0 5.2-.2 7.8-.7 0-.7-8.3-.6-9.9 0-1.2 0-2.5.1-3.7 0-.5.4-1.9.2-2.1.1.5-2.7.4-3 .4-.3 0-1.3-.1-1.6.1-.3.3-.1 1.1-.1 1.5.2 2.1.2 4.2.2 6.3 0 1.3 0 2.6-.1 3.9 0 .7.3 2.8-.2 3.3-.1.1-.3-1-.3-1.1-.2-1.1-.2-2.2-.3-3.3-.2-2.3-.2-4.6-.2-6.9 0-.8-.5-3.9.3-4.5.4-.3 1.7 0 2.1 0 1.2.1 2.4.1 3.5 0-.2 2.9.2 5.5.2 8.2zm-5.4 7.7h-.2.2zm5-15.4c-.2.1-.2 0-.2-.2.1.1.1.2.2.2zm-7.6 8.8c0 2.3 0 4.5-.2 6.8-1 0-.3-12.1-.4-13.3-1 .1-2 .2-2.9.2-.5 0-1.4-.1-1.8.4-.3.5 0 1.4.1 1.9.1 1 .1 2 .1 3 0 1.8-.1 3.7-.1 5.5 0 .3.2 2.5-.3 2.1-.5-.4-.4-3.3-.5-3.7-.2-2.1-.2-4.3-.2-6.4 0-.5-.3-3 .2-3.4.3-.2 1.8.1 2.1.1 1.2.1 2.4.1 3.5 0 .1 2.2.4 4.5.4 6.8zm-5.4 6.6s-.2.1-.2 0h.2z"/>
</svg>
