<svg width="216" height="52" viewBox="0 0 216 52" xmlns="http://www.w3.org/2000/svg">
    <path fill="#b9daf7" d="M23.4 21.8v17.1c0 .5.2.8.5.9.5.2 1.1.3 1.7.3.8 0 1.2.1 1.3.2v.1c0 .2-.2.3-.5.3h-.5c-1.4 0-2.3-.1-2.6-.1-.8 0-1.9 0-3.2.1h-.8c-.4 0-.5-.1-.5-.3 0-.2.5-.3 1.6-.4 1.2-.1 1.9-.3 2.1-.6.1-.2.2-1 .2-2.5V22.5c0-1.5 0-2.4-.1-2.7-.1-1-.6-1.8-1.2-2.3-.5-.4-1.5-.5-2.9-.6-.2 0-.3 0-.4-.1h-.7c-.7 0-1.2.2-1.3.5l-.1.7v20c0 1 .1 1.6.3 1.8.2.2 1 .3 2.3.4.2 0 .3.1.3.3 0 .2-.2.3-.5.3h-.5c-1.4-.1-2.6-.1-3.6-.1-1.1 0-2.6 0-4.7.1H8.1c-.4 0-.5-.1-.5-.3 0-.1.1-.2.2-.2s.6 0 1.4-.1c.7-.1 1.1-.4 1.3-.7.1-.3.2-1.2.2-2.8V18.4v-.6c0-.6-.6-.9-1.8-.9-.7 0-1-.1-1-.2 0-.2 0-.3.1-.3h.9-.3 9.5c.1 0 .6 0 1.5.1h1.9c1.7 0 3.2 0 4.2-.1l12.4 15.9v-14c0-.6-.1-.9-.3-1.1-.2-.1-.6-.2-1.2-.3l-1.5-.1c-.3 0-.4-.1-.4-.2 0-.2.2-.3.6-.3h5.9A21.22 21.22 0 0 0 21.8 4C9.7 4 0 13.7 0 25.8c0 12 9.7 21.8 21.8 21.8 6.5 0 12.3-2.8 16.3-7.4-.8-.9-2.2-2.6-4.2-5-3.2-3.9-6.7-8.4-10.5-13.4zm16-4.4c-.1.1-.1.9-.1 2.3v19A21.5 21.5 0 0 0 41.7 17c-.3 0-.7 0-1.2.1-.7-.1-1.1 0-1.1.3zM65.2 16.7c0 .2-.1.3-.4.3-1.2 0-2 .2-2.3.4-.3.2-.7.9-1 2-.2.5-.5 1.3-.8 2.3-1.2 3.5-3.3 9.3-6 17.5-.4 1.2-.6 1.8-.8 1.8-.2 0-.4-.2-.5-.6-.3-1-.7-2.1-1.2-3.3-.7-1.9-1.7-4.4-2.9-7.6-.5-1.4-1.3-3.4-2.4-6.2-.6-1.5-1.2-3.1-1.8-4.9-.3-1-.9-1.5-1.9-1.4H42c-.3 0-.4-.1-.4-.3 0-.2.4-.3 1.3-.3H53c.4 0 .7.1.7.3 0 .2-.4.3-1.2.3-1.3 0-2 .2-2 .6a211.39 211.39 0 0 0 5.4 15.1c.3-.8.9-2.3 1.7-4.7.2-.6.7-2.1 1.5-4.3 1.1-3.2 1.6-5.1 1.6-5.8 0-.4-.2-.7-.5-.7-.1 0-.7 0-1.6-.1-.5 0-.7-.1-.7-.4 0-.2.2-.3.5-.3h6.4c.2-.1.4 0 .4.3zm18.4 17.8v3.3c0 1.1 0 1.9-.1 2.4v.7c-6.2-.3-11.6-.4-16.3-.2h-3c-.4 0-.6-.1-.6-.3 0-.1.1-.2.2-.2s.5-.1 1.1-.1c1.1-.1 1.7-.4 1.8-1 0-.3.1-.6.1-1V20.3 18c0-.4-.1-.6-.4-.8-.3-.2-.7-.2-1.4-.2s-1.1-.1-1.1-.3c0-.2.3-.4 1-.4h2.7c4.3-.1 7.9-.1 10.6-.1h2.4c.5 0 1.2 0 1.9-.1l.3 3.8c.1 1.2.2 2 .2 2.3 0 .2-.1.4-.4.4-.2 0-.4-.3-.5-.9-.2-1.6-.9-2.8-2-3.5-1.1-.7-2.7-1.1-4.9-1.1-.7 0-1.8 0-3.4.1v10.4c2.6 0 4.2-.2 4.9-.5.7-.4 1.1-1.4 1.4-3 .1-.9.3-1.3.5-1.3s.3.2.3.6c0 .4 0 1.3-.1 2.6v1.8c0 2 0 3.5.1 4.6v.5c0 .3-.1.4-.3.4-.2 0-.3-.1-.3-.2s-.1-.5-.2-1.1c-.2-1.7-.6-2.7-1-3.1-.4-.4-1.4-.6-2.9-.6h-2.4V40h2.3c2.6 0 4.2-.1 4.7-.2.7-.1 1.4-.4 2.1-.8.6-.5 1-1 1.2-1.5s.5-1.5.7-3c.1-.4.2-.5.4-.5.3 0 .4.2.4.5zm17.5-.7c0 2.1-.8 3.9-2.3 5.3a8.27 8.27 0 0 1-5.8 2.1c-1.4 0-3.4-.5-5.9-1.4-.2-.1-.4-.1-.5-.1-.4 0-.7.4-.9 1.3-.1.3-.2.4-.3.4-.2 0-.3-.2-.3-.5s.1-.8.2-1.6c.1-.6.1-1.4.1-2.2v-1.6c0-.8-.1-1.3-.1-1.4 0-.4.1-.6.4-.6s.4.5.6 1.5c.3 1.7 1.1 3.1 2.2 4.1 1.2 1 2.6 1.6 4 1.6 1.3 0 2.3-.4 3.2-1.2.9-.8 1.3-1.8 1.3-2.9 0-1-.3-1.8-.8-2.4-.4-.4-1.8-1.3-4.1-2.5-2.6-1.4-4.3-2.7-5.2-4.1-.8-1.2-1.3-2.7-1.3-4.4 0-2 .7-3.7 2.2-5 1.4-1.3 3.2-2 5.4-2 1.2 0 2.4.3 3.8.8.4.2.8.3 1 .3.4 0 .6-.3.7-.9 0-.2.2-.3.3-.3.2 0 .4.2.4.5 0 .1 0 .4-.1 1-.1.5-.1 1-.1 1.3 0 1.2 0 2.3.1 3.1v.3c0 .2-.1.3-.3.3-.2 0-.4-.4-.6-1.1-.2-.8-.6-1.5-1.1-2.2-.5-.7-1.1-1.3-1.6-1.6-.7-.4-1.5-.6-2.5-.6-1.3 0-2.4.3-3.1 1-.8.6-1.2 1.5-1.2 2.6 0 1 .4 1.8 1.1 2.6.7.7 2.1 1.7 4.2 2.8 2.5 1.4 4.2 2.5 5 3.4 1.3.8 1.9 2.3 1.9 4.3zm21.7-10.9c0 .2-.1.3-.2.3-.3 0-.5-.5-.7-1.4-.4-1.8-1-3-1.8-3.7-.8-.6-1.9-1-3.6-1h-1.7v21.5c0 .6.2 1 .5 1.1.3.2 1.1.3 2.5.4.3 0 .4.1.4.3 0 .2-.2.4-.6.4h-1.4l-3.6-.1-6 .2c-.3 0-.5-.1-.5-.3 0-.1 0-.2.1-.2s.5 0 1.2-.1c1.3 0 2-.4 2.1-.9 0-.3.1-2.7.1-7.2v-15h-.9c-1.9 0-3.2.3-4.1 1-.9.7-1.4 1.9-1.7 3.7-.2 1-.4 1.5-.6 1.5-.2 0-.3-.1-.3-.4 0-.2 0-.8.1-1.9.2-2.3.3-3.9.4-4.7h3.1c.1 0 .9 0 2.4.1 1.6 0 3.6.1 6 .1h6.5c.8 0 1.4 0 1.8-.1.1 1.5.2 3.5.5 5.8v.6zm27.6 17.6c0 .2-.2.4-.7.4h-11.6c-.3 0-.5-.1-.5-.3s.2-.3.5-.3h1.2c1.1 0 1.7-.2 2-.6.1-.1.1-.8.1-2.1V18.4c-.8 2-1.8 5.1-3 9.3l-3.1 10.8c-.4 1.3-.7 2-.9 2-.3 0-.5-.3-.7-1l-2.3-6.8c-.5-1.6-2-6.2-4.4-13.7v20.2c0 .2.1.4.3.5.4.3 1 .5 1.8.4.8 0 1.3.1 1.3.4 0 .2-.2.2-.5.2l-3.1-.1h-1.9c-.9.1-1.6.1-1.9.1-.5 0-.7-.1-.7-.3 0-.2.2-.3.6-.3h1.7c.7-.1 1.2-.4 1.3-.8.1-.3.1-.9.1-1.8V20.7c0-1.9-.1-3-.3-3.3-.2-.3-1.1-.5-2.5-.5-.4 0-.6-.1-.6-.3 0-.2.2-.3.6-.3h8c2 6.5 3.7 11.9 5.1 16.2l4.8-16.2h8.6c.5 0 .7.1.7.3 0 .2-.1.3-.4.3h-1c-1 0-1.6 0-2 .3-.3.2-.5.7-.5 1.4v19.9c0 .8.2 1.3.7 1.5.4.1 1.1.2 2 .2.8-.1 1.2 0 1.2.3zm20.1-6v3.3c0 1.1 0 1.9-.1 2.4v.7c-6.2-.3-11.6-.4-16.3-.2h-3c-.4 0-.6-.1-.6-.3 0-.1.1-.2.2-.2s.5-.1 1.1-.1c1.1-.1 1.7-.4 1.8-1 0-.3.1-.6.1-1V20.3 18c0-.4-.1-.6-.4-.8-.2-.1-.6-.2-1.3-.2-.7 0-1.1-.1-1.1-.3 0-.2.3-.4 1-.4h2.7c4.3-.1 7.9-.1 10.6-.1h2.4c.5 0 1.2 0 1.9-.1l.3 3.8c.1 1.2.2 2 .2 2.3 0 .2-.1.4-.4.4s-.4-.3-.5-.9c-.2-1.6-.9-2.8-2-3.5-1.1-.7-2.7-1.1-4.9-1.1-.7 0-1.8 0-3.4.1v10.4c2.6 0 4.2-.2 4.9-.5.7-.4 1.1-1.4 1.4-3 .1-.9.3-1.3.5-1.3s.3.2.3.6c0 .4 0 1.3-.1 2.6v1.8c0 2 0 3.5.1 4.6v.5c0 .3-.1.4-.3.4-.2 0-.3-.1-.3-.2s-.1-.5-.2-1.1c-.2-1.7-.6-2.7-1-3.1-.4-.4-1.4-.6-2.9-.6h-2.4V40h2.3c2.6 0 4.2-.1 4.7-.2.7-.1 1.4-.4 2.1-.8.6-.5 1-1 1.2-1.5.2-.5.5-1.5.7-3 .1-.4.2-.5.4-.5s.3.2.3.5zm24.4-17.8c0 .1-.1.2-.3.2-.2 0-.8.1-1.8.1-.6 0-1 .1-1.1.4-.1.1-.1.9-.1 2.3v20.8c0 .4-.1.6-.2.6-.3 0-2-1.9-5.1-5.8-3.2-3.9-6.6-8.3-10.4-13.4V39c0 .5.2.8.5.9.5.2 1.1.3 1.7.3.8 0 1.2.1 1.3.2v.1c0 .2-.2.3-.5.3h-.5c-1.4 0-2.3-.1-2.6-.1-.8 0-1.9 0-3.2.1h-.9c-.4 0-.5-.1-.5-.3 0-.2.5-.3 1.6-.4 1.2-.1 1.9-.3 2.1-.6.1-.2.2-1 .2-2.5V22.5c0-1.5 0-2.4-.1-2.7-.1-1-.6-1.8-1.2-2.3-.5-.4-1.5-.5-2.9-.6-.4 0-.6-.1-.6-.3 0-.2.2-.3.5-.3.1 0 .6 0 1.5.1h1.9c1.7 0 3.2 0 4.2-.1l12.4 15.9v-14c0-.6-.1-.9-.3-1.1-.2-.1-.6-.2-1.2-.3l-1.5-.1c-.3 0-.4-.1-.4-.2 0-.2.2-.3.6-.3h6.5c.2.2.4.3.4.5zm20.6 6.2c0 .2-.1.3-.2.3-.3 0-.5-.5-.7-1.4-.4-1.8-1-3-1.8-3.7-.8-.6-2-1-3.6-1h-1.7v21.5c0 .6.2 1 .5 1.1.3.2 1.1.3 2.5.4.3 0 .4.1.4.3 0 .2-.2.4-.6.4h-1.4l-3.6-.1-6 .2c-.3 0-.5-.1-.5-.3 0-.1.1-.2.1-.2.1 0 .5 0 1.2-.1 1.3 0 2-.4 2.1-.9 0-.3.1-2.7.1-7.2v-15h-.9c-1.9 0-3.3.3-4.1 1-.9.7-1.4 1.9-1.7 3.7-.2 1-.4 1.5-.6 1.5-.2 0-.3-.1-.3-.4 0-.2 0-.8.1-1.9.2-2.3.3-3.9.4-4.7h3.1c.1 0 .9 0 2.4.1 1.6 0 3.6.1 6 .1h6.5c.8 0 1.4 0 1.8-.1.1 1.5.2 3.5.5 5.8-.1.2 0 .5 0 .6z"/>
</svg>
