<svg width="213" height="52" viewBox="0 0 213 52" xmlns="http://www.w3.org/2000/svg">
    <path fill="#b9daf7" d="M45.8 7H0v38.7h21.1l-.1-5.8h1.5c.3 1.1.7 2.1 1.1 3 .4.9 1 1.8 1.7 2.5l.2.2H35l.3-.6c.2-.6.3-1.2.3-1.9 0-1.1-.3-2.1-.9-3S33.2 38.5 32 38c-.8-.3-1.7-.7-2.8-1.1s-2-.8-2.7-1.1c-1.5-.7-2.7-1.6-3.5-2.7-.8-1.1-1.2-2.5-1.2-4.3a6.39 6.39 0 0 1 2.4-5.1c.7-.6 1.6-1.2 2.6-1.5a8.8 8.8 0 0 1 6.4 0c1 .4 1.8.8 2.7 1.3l.8-1.3H38l.2 8.8h-1.5c-.3-1-.6-2-.9-2.9-.3-.9-.8-1.8-1.3-2.5s-1.2-1.3-2-1.7c-.8-.4-1.7-.6-2.8-.6-1.2 0-2.2.4-3 1.1-.8.8-1.3 1.7-1.3 2.8 0 1.1.3 2.1.8 2.9.5.8 1.3 1.4 2.3 1.9.9.4 1.8.8 2.7 1.1.9.3 1.7.7 2.6 1 .8.3 1.5.7 2.2 1.1.7.4 1.3.9 1.8 1.4.6.6 1 1.3 1.2 2.1.3.7.4 1.6.4 2.6 0 1.6-.4 3.1-1.3 4.3H46V7zm8.7 32.5c.1.6.2 1.2.5 1.8.3.5.6 1 1 1.4a4.2 4.2 0 0 0 3.1 1.2c.4 0 .9-.1 1.3-.2s.8-.3 1.2-.6c.3-.2.6-.6.8-1 .2-.4.3-.9.3-1.4 0-.5-.2-1-.5-1.4a4 4 0 0 0-1.2-1c-.5-.3-1.1-.6-1.7-.8l-2-.7c-.7-.2-1.3-.5-2-.8-.7-.3-1.2-.7-1.7-1.1-.5-.4-.9-.9-1.2-1.5-.3-.6-.5-1.2-.5-2s.2-1.5.5-2.1c.3-.6.8-1.1 1.3-1.6.6-.4 1.2-.8 2-1 .8-.2 1.7-.3 2.6-.3 1.2 0 2.3.2 3.1.6.9.4 1.6.8 2.1 1.4.6.6 1 1.2 1.2 1.9.3.7.4 1.4.5 2h-3.1c-.1-.6-.2-1.1-.4-1.6s-.5-.9-.8-1.2c-.3-.3-.8-.5-1.2-.7-.5-.2-1-.2-1.5-.2-.4 0-.8 0-1.2.1-.4.1-.7.2-1 .5-.3.2-.6.5-.7.8-.2.3-.3.7-.3 1.1 0 .6.2 1.1.5 1.5.3.4.7.8 1.2 1.1.5.3 1.1.6 1.7.8.7.2 1.3.5 2 .7.7.2 1.3.5 2 .8.7.3 1.2.6 1.7 1s.9.9 1.2 1.4c.3.6.5 1.2.5 2 0 .9-.2 1.7-.5 2.4s-.8 1.3-1.4 1.7c-.6.5-1.3.8-2.2 1-.7.5-1.7.6-2.7.6-1.1 0-2-.2-3-.5-.9-.3-1.7-.7-2.4-1.3-.7-.6-1.2-1.3-1.6-2.1-.4-.8-.6-1.7-.6-2.8l3.1.1zM71 27v12.4c0 .7.1 1.3.4 1.9.2.5.6 1 .9 1.4.4.4.8.6 1.3.8.5.2 1 .3 1.5.3s1.1-.1 1.6-.3c.5-.2 1-.4 1.4-.8.4-.4.7-.8 1-1.4.3-.5.4-1.2.4-1.9V27h3.1v12.4c0 1.1-.2 2-.7 2.9a6.84 6.84 0 0 1-4.1 3.4c-.9.3-1.8.4-2.7.4-.9 0-1.7-.1-2.6-.4-.8-.3-1.6-.7-2.3-1.3s-1.2-1.3-1.7-2.1c-.4-.8-.6-1.8-.6-2.9V27H71zm13.4 0h7.5c1 0 1.8.2 2.6.5s1.4.7 1.9 1.2.9 1.1 1.2 1.7c.3.6.4 1.3.4 1.9 0 .7-.1 1.4-.4 2-.3.6-.7 1.2-1.2 1.7s-1.1.9-1.9 1.2c-.8.3-1.6.5-2.6.5h-4.3v7.8h-3.1L84.4 27zm3.1 8.7h4.4c.4 0 .8-.1 1.1-.3.4-.2.7-.4.9-.7.3-.3.5-.6.6-1 .2-.4.2-.8.2-1.3s-.1-.9-.2-1.3c-.2-.4-.4-.7-.6-1-.3-.3-.6-.5-.9-.7-.4-.2-.8-.2-1.2-.2h-4.4l.1 6.5zM99.8 27h7.5c1 0 1.8.2 2.6.5s1.4.7 1.9 1.2.9 1.1 1.2 1.7c.3.6.4 1.3.4 1.9 0 .7-.1 1.4-.4 2-.3.6-.7 1.2-1.2 1.7s-1.1.9-1.9 1.2c-.7.3-1.6.5-2.6.5h-4.4v7.8h-3.1V27zm3.1 8.7h4.4c.4 0 .8-.1 1.1-.3.4-.2.7-.4.9-.7.3-.3.5-.6.6-1 .2-.4.2-.8.2-1.3s-.1-.9-.2-1.3c-.2-.4-.4-.7-.6-1-.3-.3-.6-.5-.9-.7-.4-.2-.8-.2-1.2-.2h-4.3v6.5zm15.4-8.7v16.4h9.1v2.2h-12.2V27h3.1zm24.2 0v2.2h-10.2v5.7h9.6v2.2h-9.6v6.3H143v2.2h-13.7V27h13.2zm6 0l5.3 14 5.4-14h3.6v18.6h-3.1V32.8l-4.9 12.8h-2l-4.7-12.8v12.8H145V27h3.5zm29.5 0v2.2h-10.2v5.7h9.6v2.2h-9.6v6.3h10.6v2.2h-13.7V27H178zm6 0l8.2 14V27h3.1v18.6h-3.6l-8.2-14v14h-3.1V27h3.6zm28.3 0v2.2h-6v16.4h-3.1V29.2h-6V27h15.1z"/>
</svg>
