<svg width="213" height="52" viewBox="0 0 213 52" xmlns="http://www.w3.org/2000/svg">
    <path fill="#b9daf7" d="M152.4 7.3h17.4v9.6h-17.4V7.3zm21-2.4h17.4v11.9h-17.4V4.9zM193.8 3h17.4v13.8h-17.4V3zm-84.2 8.8H127v5.1h-17.3l-.1-5.1zM131.2 9h17.4v7.8h-17.4V9zM0 24.1h20.2v3.1h-8.4v21.1H8.3V27.1H0v-3zm33.7-.3c3.7 0 6.8 1.2 9.3 3.5 2.5 2.4 3.7 5.3 3.7 8.9 0 3.6-1.3 6.5-3.8 8.9-2.5 2.3-5.7 3.5-9.5 3.5-3.6 0-6.7-1.2-9.1-3.5-2.4-2.3-3.6-5.3-3.6-8.8 0-3.6 1.2-6.6 3.7-9 2.5-2.4 5.6-3.5 9.3-3.5zm.2 3.2c-2.8 0-5 .9-6.8 2.6a8.67 8.67 0 0 0-2.7 6.6c0 2.6.9 4.8 2.7 6.5 1.8 1.7 4 2.6 6.7 2.6s4.9-.9 6.8-2.6c1.8-1.8 2.7-4 2.7-6.6 0-2.6-.9-4.7-2.7-6.5a9.71 9.71 0 0 0-6.7-2.6zM71 24.1h3.2v24.2h-3.5V29.5l-7.4 9.3h-.6l-7.5-9.3v18.8h-3.5V24.1H55l8 9.9 8-9.9zm15.1 14l-2.6-1.6c-1.7-1-2.8-2-3.5-3-.7-1-1-2.1-1-3.4 0-1.9.7-3.5 2-4.6s3-1.8 5.1-1.8c2 0 3.9.6 5.6 1.7v3.9a7.78 7.78 0 0 0-5.6-2.5c-1.1 0-2.1.3-2.8.8-.7.5-1.1 1.2-1.1 2 0 .7.3 1.4.8 2 .5.6 1.4 1.3 2.6 2l2.6 1.6c2.9 1.8 4.4 4 4.4 6.7 0 1.9-.6 3.5-1.9 4.7-1.3 1.2-3 1.8-5.1 1.8-2.4 0-4.6-.7-6.5-2.2V42c1.9 2.4 4 3.6 6.5 3.6a4 4 0 0 0 2.7-.9c.7-.6 1.1-1.4 1.1-2.3-.1-1.5-1.2-2.9-3.3-4.3zm17.8-14h3.5v24.2h-3.5V24.1zm28.8 0h3.3v24.2h-3l-16.2-18.6v18.6h-3.3V24.1h2.8l16.3 18.8.1-18.8zm30 18.6v3.8a17.9 17.9 0 0 1-8.8 2.1c-2.7 0-5-.5-6.9-1.6a12.14 12.14 0 0 1-6.1-10.7c0-3.5 1.3-6.5 3.8-8.9 2.5-2.4 5.6-3.6 9.3-3.6 2.5 0 5.4.7 8.5 2v3.7c-2.8-1.6-5.6-2.4-8.3-2.4-2.8 0-5.1.9-6.9 2.6a8.67 8.67 0 0 0-2.7 6.6c0 2.7.9 4.8 2.7 6.5 1.8 1.7 4.1 2.6 6.9 2.6 2.8 0 5.7-.9 8.5-2.7zm16.8-18.9c3.7 0 6.8 1.2 9.3 3.5s3.7 5.3 3.7 8.9c0 3.6-1.2 6.5-3.8 8.9-2.5 2.3-5.7 3.5-9.5 3.5-3.6 0-6.7-1.2-9.1-3.5-2.4-2.3-3.6-5.3-3.6-8.8 0-3.6 1.2-6.6 3.7-9 2.5-2.4 5.6-3.5 9.3-3.5zm.1 3.2c-2.8 0-5 .9-6.8 2.6a8.67 8.67 0 0 0-2.7 6.6c0 2.6.9 4.8 2.7 6.5 1.8 1.7 4 2.6 6.7 2.6s4.9-.9 6.8-2.6 2.7-4 2.7-6.6c0-2.6-.9-4.7-2.7-6.5s-4-2.6-6.7-2.6zm17.7 21.3V24.1h7.7c2.3 0 4.1.6 5.5 1.9 1.4 1.2 2.1 2.9 2.1 5 0 1.4-.4 2.7-1.1 3.7a6.2 6.2 0 0 1-2.9 2.4c-1.2.5-3 .7-5.3.7h-2.6v10.5h-3.4zm7.1-21.2h-3.6v7.6h3.8c1.4 0 2.5-.3 3.2-1 .8-.7 1.1-1.6 1.1-2.8.1-2.5-1.5-3.8-4.5-3.8z"/>
</svg>
