<svg width="1800" height="1085" viewBox="0 0 1800 1085" xmlns="http://www.w3.org/2000/svg">
    <path opacity=".65" fill="#e1f0fb" d="M1551.8 311.7c-112.6-112.8-309.7-182-558.3-164.4-80.2 5.7-155.1 3.1-226.5-4.6C654.8 88.2 562.8 30.9 442.4 30.9c-54.4 0-100.6 5.6-141.9 13.4C205.1 22.6 106.9 4.9 0 0v1085c7.9-4.6 31.7-20 66.9-38.6 202.2 57.9 464.9-44.3 715.6-77.4 63.2 5.6 119.8 12.2 162.8 18.7 57.1 8.7 111.2 2.6 164-10.2 145 9 268-31.8 360.4-98.2 16.8-.8 33.8-.5 51.2.9C1678.2 893 1800 812.8 1800 601.9c0-122.7-96.7-225.6-248.2-290.2z"/>
    <path fill="#e1f0fb" d="M350.2 959.2c128.7-9.3 296-2.2 432.3 9.8 85.9-11.4 170.4-14.6 250.6-.6 26 4.6 51.4 7.5 76.2 9.1 119.2-29 232.2-92.4 360.4-98.2 124.3-89.3 193.1-224.8 185.7-347.7-4.9-81.8-41.3-157.5-103.6-219.9-108.8-46.4-245.8-73-395.5-73-170.1 0-288-46.8-389.3-96-165-17.9-312.1-63.3-466.5-98.4C188.5 65.4 111.7 102.7 0 88.8v931.1c21.4 11.1 43.8 19.9 66.9 26.5 64.6-34.1 167.8-78.9 283.3-87.2z"/>
</svg>
