<svg width="1300" height="830" viewBox="0 0 1300 830" xmlns="http://www.w3.org/2000/svg">
    <path opacity=".65" fill="#e1f0fb" d="M1247.6 381.2c2.8-16.9 4.2-33.8 4.2-50.6 0-157.1-156.8-227.5-361-252.8C798.2 30.3 701.9 0 616.5 0c-66.3 0-127.4 18.5-182.2 49-3.7 2-7.3 4.1-10.9 6.3-30.5 18.2-59 40-85.2 64.3-.6.6-1.2 1.1-1.8 1.7C150.6 184.6.1 303.1 0 481v.2c.1 282.2 319.5 388.9 676.4 335.5a981 981 0 0 0 54.1-9.6c13.2.6 26.2.9 39.2.9 280.7 0 526.4-94.9 530.3-281.9v-4.4c0-41.7-19.3-90.2-52.4-140.5z"/>
    <path fill="#e1f0fb" d="M890.8 77.8C823.2 69.4 750.4 66 676.4 66c-110 0-231 18.2-340 55.3-7.1 6.6-14 13.4-20.7 20.4-1.5 1.5-2.9 3-4.4 4.6-5.8 6.1-11.4 12.3-16.9 18.7-1.4 1.6-2.7 3.2-4.1 4.8-5.4 6.4-10.7 12.8-15.9 19.4-1.3 1.6-2.6 3.3-3.8 4.9a727.58 727.58 0 0 0-28.9 40.3 645.5 645.5 0 0 0-19.3 31c-2 3.5-4 6.9-6 10.4s-3.9 7-5.8 10.4c-.9 1.7-1.9 3.5-2.8 5.2-3.7 7-7.3 13.9-10.7 20.9s-6.6 13.9-9.7 20.8c-1.5 3.5-3 6.9-4.5 10.3s-2.9 6.9-4.3 10.3c-2.8 6.8-5.4 13.6-7.8 20.4-.6 1.7-1.2 3.4-1.8 5-1.2 3.3-2.3 6.7-3.4 10-2.7 8.3-5.2 16.5-7.4 24.5-.9 3.2-1.7 6.4-2.5 9.6-2 7.9-3.7 15.7-5.2 23.3-.6 3-1.1 6-1.6 9-.2 1.5-.5 3-.7 4.4-.5 2.9-.9 5.8-1.2 8.7-1.5 11.5-2.2 22.4-2.2 32.7 0 1.3 0 2.6.1 3.8 5 155 313.8 289.9 585.8 302.1 297.3-61.1 487.1-243.3 517.1-425.9-72.4-109.8-210.2-228.2-357-303.5z"/>
</svg>
