<svg width="125" height="70" viewBox="0 0 125 70" xmlns="http://www.w3.org/2000/svg">
    <path fill="#b9daf7" d="M25 60a25 25 0 0 1 0-50c3.4 0 6.8.7 9.9 2.1l-.8 1.8c-11.7-5-25.2.4-30.2 12.1S4.3 51.2 16 56.2a22.98 22.98 0 0 0 28.7-33.1l1.7-1A25.02 25.02 0 0 1 25 60zm16.4-38.4c-2.9 0-5.3-2.4-5.3-5.3s2.4-5.3 5.3-5.3 5.3 2.4 5.3 5.3-2.4 5.3-5.3 5.3zm0-8.6c-1.8 0-3.3 1.5-3.3 3.3s1.5 3.3 3.3 3.3 3.3-1.5 3.3-3.3-1.5-3.3-3.3-3.3zm26 17.5c0 1.3-.3 2.4-.9 3.1s-1.5 1.1-2.6 1.1-2-.4-2.6-1.1c-.6-.7-1-1.8-1-3.1v-1.7c0-1.4.3-2.4 1-3.2.7-.8 1.5-1.1 2.6-1.1s2 .4 2.6 1.1 1 1.8 1 3.2l-.1 1.7zm-2-1.6c0-.9-.1-1.6-.4-2s-.7-.7-1.2-.7-.9.2-1.2.6-.4 1.1-.4 1.9v1.8c0 .9.1 1.5.4 1.9.3.4.7.6 1.2.6s.9-.2 1.2-.6c.3-.4.4-1 .4-1.9v-1.6zm7 .2h-.6c-.5 0-.9.2-1.1.7v4.9h-1.9v-7.4h1.8l.1.8c.3-.6.7-.9 1.3-.9.2 0 .4 0 .5.1l-.1 1.8zm3 5.5h-1.9V24.1h1.9v10.5zm4.5.2c-1 0-1.8-.3-2.3-.9-.6-.6-.8-1.4-.8-2.5v-.6c0-1.2.2-2.1.8-2.7.5-.6 1.2-1 2.2-1 .9 0 1.6.3 2.1.9s.7 1.5.7 2.6v1h-3.8c0 .5.1 1 .4 1.2.2.3.5.4 1 .4.7 0 1.2-.2 1.6-.7l.8 1.2c-.2.3-.6.6-1 .8-.7.2-1.1.3-1.7.3zm-1.2-4.6h1.9V30c0-.5-.1-.8-.2-1s-.4-.3-.7-.3-.6.1-.7.3c-.2.3-.3.7-.3 1.2zm7.2 1.2l1-4.2H89l-2.4 8.5c-.4 1.3-1.1 1.9-2.1 1.9-.2 0-.5 0-.8-.1V36h.2c.3 0 .5-.1.7-.2s.3-.3.3-.6l.2-.5-2.1-7.5h2l.9 4.2zM65.6 46h-3.1v2.6h3.7v1.7h-5.7v-10h5.7V42h-3.7v2.4h3.1V46zm3.5-3.1l.1.7c.4-.6 1-.9 1.7-.9 1.3 0 1.9.9 2 2.7v4.9H71v-4.7c0-.4-.1-.7-.2-.9s-.4-.3-.7-.3c-.4 0-.6.2-.8.5v5.4h-1.9v-7.4h1.7zm9-1.8v1.8h1v1.4h-1V48c0 .3 0 .5.1.6s.2.2.5.2h.5v1.5c-.3.1-.7.2-1.1.2-1.2 0-1.9-.7-1.9-2.2v-3.9h-.9V43h.9v-1.8l1.9-.1zm5 9.3c-1 0-1.8-.3-2.3-.9-.6-.5-.8-1.4-.8-2.5v-.6c0-1.2.2-2.1.8-2.7.5-.6 1.2-1 2.2-1 .9 0 1.6.3 2.1.9.5.6.7 1.5.7 2.6v1H82c0 .5.2 1 .4 1.2.2.3.5.4 1 .4.7 0 1.2-.2 1.6-.7l.8 1.2c-.2.3-.6.6-1 .8-.6.2-1.1.3-1.7.3zm-1.2-4.5h1.9v-.2c0-.5-.1-.8-.2-1s-.4-.4-.7-.4-.6.1-.7.4c-.2.3-.3.6-.3 1.2zm8.6-1.1h-.6c-.5 0-.9.2-1.1.7v4.9h-1.9V43h1.8l.1.8c.3-.6.7-.9 1.3-.9.2 0 .4 0 .5.1l-.1 1.8zm6.7 2c0 1.2-.2 2-.6 2.7s-1 .9-1.8.9c-.6 0-1.1-.2-1.4-.7v3.4h-1.9V42.9h1.8l.1.7c.4-.5.9-.8 1.5-.8.8 0 1.4.3 1.8.9.4.6.6 1.5.6 2.6l-.1.5zm-1.9-.5c0-.7-.1-1.2-.2-1.5-.2-.3-.4-.5-.8-.5s-.7.2-.9.5v3.5c.2.3.5.5.9.5s.6-.2.8-.5.2-.8.2-1.5v-.5zm6.8-1.5h-.6c-.5 0-.9.2-1.1.7v4.9h-1.9V43h1.8l.1.8c.3-.6.7-.9 1.3-.9.2 0 .4 0 .5.1l-.1 1.8zm1-3.8c0-.3.1-.6.3-.7.2-.2.5-.3.8-.3s.6.1.8.3c.2.2.3.4.3.7s-.1.5-.3.7c-.2.2-.5.3-.8.3s-.6-.1-.8-.3-.3-.4-.3-.7zm2 9.3h-1.9v-7.4h1.9v7.4zm4.8-2c0-.2-.1-.3-.2-.5-.2-.1-.5-.3-1-.6-.8-.3-1.3-.7-1.6-1-.3-.4-.4-.8-.4-1.3 0-.7.2-1.2.7-1.6.5-.4 1.1-.6 1.9-.6s1.5.2 1.9.6.7 1 .7 1.7H110c0-.6-.2-.9-.8-.9-.2 0-.4.1-.5.2-.1.1-.2.3-.2.5s.1.3.2.4c.1.1.5.3 1 .5.8.3 1.3.6 1.7 1 .3.4.5.8.5 1.4 0 .7-.2 1.2-.7 1.6-.5.4-1.2.6-2 .6-.5 0-1-.1-1.4-.3s-.7-.5-1-.9c-.2-.4-.3-.8-.3-1.2h1.8c0 .3.1.6.2.8.2.2.4.2.7.2.4.1.7-.1.7-.6zm6 2.1c-1 0-1.8-.3-2.3-.9-.6-.6-.8-1.4-.8-2.5v-.6c0-1.2.2-2.1.8-2.7.5-.6 1.2-1 2.2-1 .9 0 1.6.3 2.1.9s.7 1.5.7 2.6v1h-3.8c0 .5.1 1 .4 1.2.2.3.5.4 1 .4.7 0 1.2-.2 1.6-.7l.8 1.2c-.2.3-.6.6-1 .8s-1.1.3-1.7.3zm-1.2-4.5h1.9v-.2c0-.5-.1-.8-.2-1s-.4-.4-.7-.4-.6.1-.7.4c-.2.3-.3.6-.3 1.2zm8.2 2.4c0-.2-.1-.3-.2-.5-.2-.1-.5-.3-1-.6-.8-.3-1.4-.7-1.6-1-.3-.4-.4-.8-.4-1.3 0-.7.2-1.2.7-1.6s1.1-.6 1.9-.6 1.5.2 2 .6.7 1 .7 1.7h-1.9c0-.6-.2-.9-.8-.9-.2 0-.4.1-.5.2-.1.1-.2.3-.2.5s.1.3.2.4c.2.1.5.3 1 .5.8.3 1.3.6 1.7 1 .3.4.5.8.5 1.4 0 .7-.2 1.2-.7 1.6-.5.4-1.2.6-2 .6-.5 0-1-.1-1.4-.3s-.7-.5-1-.9c-.2-.4-.3-.8-.3-1.2h1.8c0 .3.1.6.2.8.2.2.4.2.7.2.4.1.6-.1.6-.6z"/>
    <path fill="#7dafd3" d="M30.1 35.9h-2.2v4h-.7v-9.7h2.6c.8 0 1.5.2 2 .7s.7 1.2.7 2.1c0 .6-.1 1.2-.4 1.7-.3.5-.7.8-1.1.9l2 4.1v.1h-.8c-.1.1-2.1-3.9-2.1-3.9zm-2.3-.7h2c.5 0 1-.2 1.3-.6.3-.4.5-.8.5-1.5 0-.6-.2-1.2-.5-1.6-.3-.3-.8-.5-1.4-.5h-1.9v4.2zM20.3 30c1 0 1.7.3 2.3 1.1.5.7.8 1.7.8 2.9v2.1c0 1.2-.2 2.1-.8 2.8-.6.8-1.5 1.1-2.4 1.1-.9 0-1.8-.3-2.4-1.1-.6-.7-.8-1.7-.8-2.8V34c0-1.3.3-2.2.8-2.9S19 30 20.1 30h.2zm-.1 9.2c.7 0 1.3-.3 1.8-.8.4-.5.6-1.4.6-2.4v-2.1c0-1.1-.2-1.8-.6-2.3-.4-.5-.9-.7-1.7-.7h-.2c-.7 0-1.2.2-1.7.7-.4.5-.6 1.3-.6 2.3V36c0 1.1.2 1.9.6 2.4.5.4 1.1.8 1.8.8"/>
</svg>
