<svg width="135" height="70" viewBox="0 0 135 70" xmlns="http://www.w3.org/2000/svg">
    <path fill="#b9daf7" d="M0 15v40h40V15H0zm23.7 12.6c0-.8.1-1.4.4-2s.6-1 1.1-1.3c.5-.3 1.1-.5 1.7-.5.9 0 1.6.2 2.2.7s.9 1.2 1 2.1h-1.6c0-.5-.2-.9-.4-1.1-.2-.2-.6-.4-1.1-.4s-1 .2-1.2.6c-.3.4-.4 1-.4 1.8v.6c0 .8.1 1.5.4 1.9s.7.6 1.2.6.9-.1 1.1-.3.4-.6.4-1.1h1.6c-.1.8-.4 1.5-1 2s-1.3.7-2.2.7c-1 0-1.8-.3-2.4-1s-.9-1.6-.9-2.8l.1-.5zm-8 17.4h-5.3v-7.9h5.3v1.3H12v1.9h3.1v1.3H12v2.1h3.7V45zm13.9.4L10 25.8l.7-.7 19.6 19.6-.7.7zM50 31.3V15h7.2v3.2h-3.5v3.2h3.4v3.1h-3.4v3.7h3.8v3.2H50v-.1zm15.2 0h-4.9L58 15h3.6l1 10.8L63.8 15h3.6l-2.2 16.3zm3.2 0V15h7.2v3.2h-3.5v3.2h3.4v3.1h-3.4v3.7h3.8v3.2h-7.5v-.1zm8.8 0V15h3.6v13.2h3.7v3.2h-7.3v-.1zm12.2 0H86V26l-2.9-11h3.6l1 5.5 1-5.5h3.6l-2.9 11v5.3zM101.8 15v16.3h-3.5l-1.8-8.2v8.2H93V15h3.7l1.7 7.8V15h3.4zM58.9 47.5v3.1c0 1.4-.4 2.5-1.2 3.1-.8.7-1.9 1-3.4 1-1.3 0-2.3-.4-3.1-1.1S50 51.8 50 50.5v-7.6c0-1.6.4-2.8 1.1-3.6.7-.8 1.8-1.2 3.4-1.2.6 0 1.2.1 1.7.2.5.2 1 .4 1.4.7.4.3.7.7 1 1.2.2.5.3 1 .3 1.7v2.9h-3.6v-1.9c0-1-.3-1.5-.9-1.5-.3 0-.6.1-.7.3a2 2 0 0 0-.2.9v7.7c0 .3.1.6.2.9.2.2.4.4.6.4.2 0 .4-.1.6-.3.2-.2.3-.5.3-1v-2.8h3.7zm5.1-.4v7.4h-3.6V38.2H64V44h1.7v-5.8h3.6v16.3h-3.6v-7.4H64zm13.9-8.9l1.8 16.3h-3.5l-.3-2.5h-1.8l-.2 2.5h-3.5l1.9-16.3h5.6zm-2.7 3h-.3l-.5 7.8h1.3l-.5-7.8zm14.3 13.3h-3.2l-2-11.8v11.8h-3.5V38.2h5.5l1.5 8.5 1.5-8.5h5.6v16.3h-3.5V42.7l-1.9 11.8zm7.1 0V38.2h4.9c1.3 0 2.2.3 2.8.8.6.6.9 1.5.9 2.9v1.2c0 .2-.1.4-.1.6 0 .1-.1.3-.2.5s-.2.4-.3.5c-.1.1-.3.3-.5.4s-.4.2-.7.3c.4.1.7.2 1 .5.3.2.5.5.6.7s.2.5.3.9.1.6.1.9v.9c0 .9-.1 1.6-.2 2.2-.1.6-.3 1.2-.6 1.7s-.7.8-1.2 1.1c-.5.2-1.2.3-1.9.3h-4.9v-.1zm3.6-10.2h.7c.2 0 .3 0 .4-.1s.2-.2.2-.3c.1-.1.1-.3.1-.4v-2c0-.5-.3-.8-.8-.8h-.8l.2 3.6zm0 2.5v4.7h.4c.9 0 1.4-.4 1.4-1.2v-2c0-.5-.1-.9-.3-1.1-.2-.2-.4-.4-.8-.4h-.7zm6.6 7.7V38.2h7.2v3.2h-3.6v3.2h3.4v3.1h-3.4v3.7h3.8v3.2h-7.4v-.1zm12.4-7.4v7.4h-3.7V38.2h5.5c.6 0 1 .1 1.5.2.4.1.7.4.9.6.2.2.4.6.6 1l.3 1.2c0 .4.1.9.1 1.5v.8c0 .2-.1.4-.1.7-.1.3-.2.5-.3.7-.1.2-.3.4-.5.6s-.5.3-.9.4c.3.1.6.2.8.3.2.2.4.4.5.6s.2.5.2.7.1.4.1.7v6.2h-3.5V48c0-.2 0-.5-.1-.6 0-.2-.1-.3-.3-.3-.1-.1-.3-.1-.4-.1s-.4.1-.7.1zm.1-5.9v3.1h.9c.5 0 .7-.5.7-1.5 0-.7-.1-1.1-.3-1.3-.2-.2-.6-.3-1.1-.3h-.2zm10.8 13.5c-1.7 0-2.9-.4-3.6-1.2s-1.1-1.9-1.1-3.5v-1.6h3.6v1.5c0 1.1.3 1.6.9 1.6.3 0 .5-.1.6-.3s.2-.5.2-.8c0-.4-.1-.8-.2-1.1-.1-.3-.3-.6-.5-.9s-.6-.6-1.2-1.1l-1.5-1.3c-1.2-1.1-1.8-2.3-1.8-3.6 0-1.5.4-2.5 1.1-3.2s1.8-1.1 3.1-1.1h.6c.3 0 .8.1 1.3.2s1 .4 1.4.8c.4.4.7.9.9 1.5.2.6.3 1.4.3 2.3h-3.6v-1c0-.2-.1-.3-.2-.5-.1-.1-.3-.2-.5-.2s-.4.1-.6.2-.2.3-.2.6c0 .5.3 1 1 1.5l2.2 1.8c.4.3.7.6.9.9.3.3.5.6.6.9.1.3.3.5.4.8.1.2.2.5.2.8s.1.5.1.6v.6c0 .6 0 1.1-.1 1.6s-.2.9-.4 1.4c-.2.4-.4.8-.8 1.1-.3.3-.7.5-1.2.7-.7-.1-1.3 0-1.9 0z"/>
</svg>
