<svg width="80" height="70" viewBox="0 0 80 70" xmlns="http://www.w3.org/2000/svg">
    <path fill="#b9daf7" d="M28.3 25.5h-6.1v5.1h7.2v3.2h-11V14.6h11v3.2h-7.1v4.6h6.1l-.1 3.1zm9.7 3l3.2-14h4.3L40 33.8h-4l-5.6-19.2h4.3L38 28.5zm17.5 1.4h-5.3l-1 3.9h-4.1l6-19.2h3.6l6 19.2h-4.2l-1-3.9zm-4.4-3.3h3.6l-1.8-6.9-1.8 6.9zM11.4 53.4H6.1l-1 3.9H1L7 38h3.6l6.1 19.2h-4.2l-1.1-3.8zM7 50.1h3.6l-1.8-6.9L7 50.1zm15.5 7.2h-3.9V38h3.9v19.3zm7.1-3.2h6.8v3.2H25.7V38h3.9v16.1zm19-5.1h-6.1v5.1h7.2v3.2h-11V38h11v3.2h-7.1v4.6h6.1l-.1 3.2zm13.3 0h-6.1v5.1H63v3.2H52V38h11v3.2h-7.2v4.6h6.1V49zm16.8 8.3h-3.9l-5.7-12.6v12.6h-3.9V38h3.9l5.7 12.6V38h3.9v19.3z"/>
    <path opacity=".7" fill="#b9daf7" d="M63.1 28.7c0-1.1.3-2.1.8-2.9.6-.8 1.4-1.7 2.5-2.6-.6-.9-1-1.7-1.3-2.5-.3-.7-.4-1.5-.4-2.3 0-1.6.5-3 1.4-4 .9-.9 2.2-1.4 3.7-1.4 1.4 0 2.5.5 3.3 1.4.8.9 1.3 2.1 1.3 3.4 0 .9-.2 1.8-.6 2.6s-1 1.4-1.7 2l-1.1 1 3.3 4.4h.1c.3-.5.5-1.1.6-1.7s.2-1.3.2-2h3c0 1.3-.1 2.5-.4 3.6s-.7 2.1-1.3 2.9l2.8 3.7h-4.6l-.9-1.2c-.7.5-1.5.9-2.2 1.1-.7.2-1.5.4-2.4.4-1.9 0-3.3-.5-4.4-1.6a5.58 5.58 0 0 1-1.7-4.3zm6.3 2.6c.4 0 .8-.1 1.3-.2.4-.1.8-.3 1.2-.5l-3.7-5-.2.1c-.3.5-.6.9-.7 1.3s-.2.9-.2 1.3c0 .8.2 1.5.6 2.1s1 .9 1.7.9zm-1.1-12.9c0 .4.1.8.3 1.2.2.4.4.9.8 1.4l.8-.6c.5-.3.8-.7 1-1.1.2-.4.2-.8.2-1.2 0-.5-.1-.9-.4-1.3-.3-.4-.7-.6-1.1-.6-.5 0-.9.2-1.1.6-.2.4-.5 1-.5 1.6z"/>
</svg>
