<svg width="112" height="70" viewBox="0 0 112 70" xmlns="http://www.w3.org/2000/svg">
    <path fill="#b9daf7" d="M112 53H0V25h8v2H2v24h108V27h-5v-2h7v28zM23.6 30.4c-.2.3-.5.5-.8.7s-.7.3-1.1.4-.9.1-1.3.1c-.8 0-1.5-.1-2.2-.2s-1.4-.4-2.2-.7V33c.5.3 1.2.5 2 .7s1.6.2 2.4.2c.9 0 1.8-.1 2.6-.3.8-.2 1.5-.5 2-.9.6-.4 1-.9 1.3-1.5s.5-1.3.5-2.1-.1-1.4-.4-1.9-.6-.9-1.1-1.2-1-.6-1.5-.7c-.6-.2-1.2-.3-1.8-.5l-1.2-.3c-.3-.1-.7-.2-1-.4s-.5-.4-.7-.6c-.2-.2-.2-.6-.2-.9 0-.7.2-1.1.7-1.5.5-.3 1.2-.5 2.1-.5.6 0 1.3.1 2 .2s1.5.4 2.2.7v-2.3c-.6-.2-1.3-.5-2.1-.6-.8-.1-1.6-.2-2.4-.2s-1.5.1-2.2.3a4.18 4.18 0 0 0-2.8 2.4c-.3.6-.4 1.3-.4 2.1 0 .7.1 1.3.4 1.8.2.5.6.9 1 1.2.4.3.9.5 1.4.7s1.1.3 1.7.5l1.3.3c.4.1.8.2 1.1.4s.6.3.8.6c.2.2.3.6.3.9-.2.1-.2.5-.4.8zm17.1-2.9c.8-.2 1.5-.5 2.1-.9s1-.9 1.3-1.5.5-1.2.5-2c0-1.1-.3-1.9-.8-2.6s-1.3-1.2-2.4-1.5c-.4-.1-.9-.2-1.5-.3-.5-.1-1.2-.1-1.9-.1h-4.3v15h2.8v-5.9h1.4c1 .1 1.9 0 2.8-.2zm-4.3-2.1v-4.5h1.5c.6 0 1 0 1.4.1.4 0 .7.1 1 .2.5.2.9.4 1.1.8.2.3.3.7.3 1.1s-.1.7-.2 1c-.1.3-.3.6-.7.8-.3.2-.7.4-1.2.5-.5.1-1.1.2-1.9.2h-.8c-.1-.1-.3-.2-.5-.2zm21.8 4.4l1.5 3.8h2.9l-6-15h-2.5l-6 15H51l1.5-3.8h5.7zm-2.9-7.6c.6 1.6 1 2.9 1.5 3.9l.5 1.3h-3.9l.5-1.3c.4-1 .9-2.3 1.4-3.9zM79 20.6c-.5-.7-1.2-1.2-2-1.5-.5-.2-1-.3-1.7-.4s-1.3-.1-2.1-.1h-4.6v15h2.8v-5.8h1.9l4.1 5.8h3.3l-4.5-6.2c1.2-.3 2.1-.9 2.7-1.6a4 4 0 0 0 .9-2.7c-.1-1-.3-1.8-.8-2.5zm-6.3 4.9h-1.4v-4.6h2c.6 0 1.1 0 1.5.1.4 0 .7.1 1 .3.4.2.7.4.9.7.2.3.2.7.2 1.1 0 .5-.1.9-.3 1.2-.2.3-.6.7-1.2.9-.3.1-.7.2-1.1.2-.4.1-1 .1-1.6.1zm17 8.1v-6.8l6.1 6.8h3.5L92.6 26l6.2-7.4h-3.4l-5.7 6.8v-6.8h-2.8v15h2.8zm-58.3 9.3h-.8V39h-1.5v-.7h3.8v.7h-1.5v3.9zm3.9-.7h2.2v.7h-3.1v-4.6h3v.7h-2.1v1.2h1.8v.7h-1.8v1.3zm6.4-3.3c-.2 0-.4 0-.6.1-.2.1-.4.2-.5.3-.1.1-.2.3-.3.5s-.1.4-.1.7c0 .3 0 .5.1.7s.2.4.3.5.3.2.5.3.4.1.7.1h.5c.2 0 .3-.1.5-.1v.7c-.2.1-.3.1-.5.1h-.6c-.4 0-.7-.1-1-.2-.3-.1-.5-.3-.7-.5s-.3-.4-.4-.7c-.1-.3-.2-.6-.2-.9 0-.4 0-.7.2-1 .1-.3.3-.6.5-.8.2-.2.5-.4.8-.5.3-.1.6-.2 1-.2h.5c.2 0 .3.1.5.1v.7c-.4.2-.6.2-.8.2-.1 0-.3-.1-.4-.1zm3.6 1.3h2.1v-1.9h.8v4.6h-.8v-2h-2.1v2h-.8v-4.6h.8v1.9zm7.5.3c.3.5.6.9.8 1.2V38.3h.8v4.6h-.9L52 40.8c-.3-.4-.5-.8-.8-1.3V42.9h-.8v-4.6h.9l1.5 2.2zm7.9.1c0 .4-.1.7-.2 1-.1.3-.2.5-.4.8s-.4.4-.7.5-.6.2-.9.2c-.4 0-.7-.1-1-.2a1.8 1.8 0 0 1-1.1-1.3c-.1-.3-.2-.6-.2-1s.1-.7.2-1 .2-.5.4-.8.4-.4.7-.5.6-.2 1-.2.7.1.9.2c.3.1.5.3.7.5s.3.5.4.8.2.7.2 1zm-.9 0c0-.3 0-.5-.1-.7-.1-.2-.2-.4-.3-.5-.1-.1-.3-.2-.4-.3s-.3-.1-.5-.1-.4 0-.6.1c-.2.1-.3.2-.4.3-.1.1-.2.3-.3.5-.1.2-.1.4-.1.7 0 .3 0 .5.1.7.1.2.2.4.3.5.1.1.3.2.4.3s.4.1.6.1c.2 0 .4 0 .5-.1.2-.1.3-.2.4-.3.1-.1.2-.3.3-.5.1-.2.1-.4.1-.7zm3.6-2.3v3.9h2.1v.7h-3v-4.6h.9zm7.9 2.3c0 .4-.1.7-.2 1-.1.3-.2.5-.4.8s-.4.4-.7.5c-.3.1-.6.2-.9.2s-.7-.1-.9-.2a1.8 1.8 0 0 1-1.1-1.3c-.1-.3-.2-.6-.2-1s.1-.7.2-1 .2-.5.4-.8c.2-.2.4-.4.7-.5s.6-.2.9-.2.7.1.9.2c.3.1.5.3.7.5s.3.5.4.8.2.7.2 1zm-.9 0c0-.3 0-.5-.1-.7-.1-.2-.2-.4-.3-.5-.1-.1-.3-.2-.4-.3-.2-.1-.3-.1-.5-.1s-.4 0-.6.1c-.2.1-.3.2-.4.3s-.2.3-.3.5c-.1.2-.1.4-.1.7 0 .3 0 .5.1.7.1.2.2.4.3.5.1.1.3.2.4.3.2.1.3.1.6.1s.4 0 .6-.1.3-.2.4-.3.2-.3.3-.5v-.7zm5.6.6h-1v-.7h1.9v2.3c-.1 0-.2.1-.3.1-.1 0-.2.1-.4.1-.1 0-.3 0-.4.1h-.4c-.4 0-.8-.1-1.1-.2-.3-.1-.6-.3-.8-.5-.2-.2-.4-.4-.5-.7s-.1-.6-.1-.9c0-.2 0-.5.1-.7.1-.2.1-.4.2-.6s.2-.3.4-.5.3-.3.5-.4c.2-.1.4-.2.6-.2.2-.1.5-.1.7-.1h.7c.2 0 .4.1.5.1v.7c-.1-.1-.3-.1-.5-.1h-.6c-.2 0-.5 0-.7.1l-.6.3c-.2.1-.3.3-.4.5-.1.2-.1.5-.1.7 0 .5.1.9.4 1.2.3.3.7.4 1.2.4h.6l.1-1zm4.5-.9l1.2-2h.9L80.9 41v1.8h-.8V41l-1.7-2.7h.9l1.2 2z"/>
</svg>
