<svg width="2560" height="1000" viewBox="0 0 2560 1000" xmlns="http://www.w3.org/2000/svg">
    <path fill="#e1f0fb" opacity=".65" d="M2222.3 179.5c-25.6-5.5-49.5-11.9-71.4-18.5-114.3-34.8-243-80.3-402-50.4-53.8 10.1-100.7 27.7-147.4 45.9-58.5-8.1-118.8-16-182.9-22.2-110.6-10.6-207.3 23.1-318 45.9C940.7 117.2 833.3 5.8 648.2 1.1 467.5-3.5 242.4 174.4 0 168.9V1000h2560V48.9c-79.7 64.4-208.4 107.8-337.7 130.6z"/>
    <path fill="#e1f0fb" d="M2222.3 179.5c-77 13.5-154.2 19.7-221.4 18.4-138.4-2.5-263.8-22.6-399.5-41.5-91.3 35.6-181.8 73.9-321.4 64.4-68.6-4.6-126.9-20.1-179.5-40.8-59.5 12.2-123 21.3-194.8 18.5-174-6.6-219-79.4-372-76.6-135.6 2.6-321 116.4-533.7 96.7V1000h2560V166.5c-119.6 41.6-240.5 33.8-337.7 13z"/>
</svg>
